<?xml version="1.0" encoding="utf-8"?>
<!-- Generator: Adobe Illustrator 27.5.0, SVG Export Plug-In . SVG Version: 6.00 Build 0)  -->
<svg version="1.1" xmlns="http://www.w3.org/2000/svg" xmlns:xlink="http://www.w3.org/1999/xlink" x="0px" y="0px"
	 viewBox="0 0 750 500" style="enable-background:new 0 0 750 500;" xml:space="preserve">
<g id="BACKGROUND">
	<rect style="fill:#10485B;" width="750" height="500"/>
</g>
<g id="OBJECTS">
	<g style="opacity:0.3;">
		<defs>
			<rect id="SVGID_1_" style="opacity:0.3;" width="750" height="500"/>
		</defs>
		<clipPath id="SVGID_00000132058045092618171910000017722229329229484700_">
			<use xlink:href="#SVGID_1_"  style="overflow:visible;"/>
		</clipPath>
		<g style="clip-path:url(#SVGID_00000132058045092618171910000017722229329229484700_);">
			<polygon style="fill:#01323F;" points="104.191,-39.16 -41.954,145.838 126.754,145.838 -164.447,533.969 358.803,64.11 
				256.018,64.268 348.791,-38.687 			"/>
			<polygon style="fill:#01323F;" points="315.986,587.247 548.849,362.656 406.883,359.651 829.223,-3.794 572.604,282.568 
				786.463,282.568 633.728,444.784 768.898,444.784 633.728,587.247 			"/>
			<polygon style="fill:#01323F;" points="106.503,573.615 280.994,419.297 165.339,419.297 296.469,295.496 58.642,470.956 
				132.759,470.956 0,576.49 			"/>
			<polygon style="fill:#01323F;" points="572.885,-2.308 482.667,77.48 542.465,77.48 474.666,141.489 597.631,50.771 
				559.31,50.771 627.951,-3.794 			"/>
		</g>
	</g>
	<g>
		<defs>
			<rect id="SVGID_00000046332544004755166160000017353724446272917917_" width="750" height="500"/>
		</defs>
		<clipPath id="SVGID_00000173853329505900143220000003687575412406479777_">
			<use xlink:href="#SVGID_00000046332544004755166160000017353724446272917917_"  style="overflow:visible;"/>
		</clipPath>
		<g style="clip-path:url(#SVGID_00000173853329505900143220000003687575412406479777_);">
			<g>
				<defs>
					<circle id="SVGID_00000155865976466460607790000009084363947337325707_" cx="139.611" cy="347.504" r="74.186"/>
				</defs>
				<clipPath id="SVGID_00000126305889272121386150000011288115617598619539_">
					<use xlink:href="#SVGID_00000155865976466460607790000009084363947337325707_"  style="overflow:visible;"/>
				</clipPath>
				<g style="clip-path:url(#SVGID_00000126305889272121386150000011288115617598619539_);">
					
						<rect x="-7.985" y="284.282" transform="matrix(0.7669 -0.6418 0.6418 0.7669 -162.2802 121.9852)" style="fill:#FFFFFF;" width="189.529" height="0.197"/>
					
						<rect x="-1.769" y="291.709" transform="matrix(0.7669 -0.6418 0.6418 0.7669 -165.6075 127.7215)" style="fill:#FFFFFF;" width="189.529" height="0.197"/>
					
						<rect x="4.446" y="299.135" transform="matrix(0.7669 -0.6418 0.6418 0.7669 -168.9248 133.4423)" style="fill:#FFFFFF;" width="189.529" height="0.197"/>
					
						<rect x="10.661" y="306.561" transform="matrix(0.7669 -0.6418 0.6418 0.7669 -172.2417 139.1625)" style="fill:#FFFFFF;" width="189.529" height="0.197"/>
					
						<rect x="16.877" y="313.987" transform="matrix(0.7669 -0.6418 0.6418 0.7669 -175.559 144.8833)" style="fill:#FFFFFF;" width="189.529" height="0.197"/>
					
						<rect x="23.092" y="321.413" transform="matrix(0.7669 -0.6418 0.6418 0.7669 -178.8762 150.6039)" style="fill:#FFFFFF;" width="189.529" height="0.197"/>
					
						<rect x="29.308" y="328.839" transform="matrix(0.7669 -0.6418 0.6418 0.7669 -182.1934 156.3246)" style="fill:#FFFFFF;" width="189.529" height="0.197"/>
					
						<rect x="35.523" y="336.266" transform="matrix(0.7669 -0.6418 0.6418 0.7669 -185.5107 162.0453)" style="fill:#FFFFFF;" width="189.529" height="0.197"/>
					
						<rect x="41.738" y="343.691" transform="matrix(0.7669 -0.6418 0.6418 0.7669 -188.8276 167.7655)" style="fill:#FFFFFF;" width="189.529" height="0.197"/>
					
						<rect x="47.954" y="351.118" transform="matrix(0.7669 -0.6418 0.6418 0.7669 -192.1448 173.4863)" style="fill:#FFFFFF;" width="189.529" height="0.197"/>
					
						<rect x="54.17" y="358.544" transform="matrix(0.7669 -0.6418 0.6418 0.7669 -195.4621 179.207)" style="fill:#FFFFFF;" width="189.529" height="0.197"/>
					
						<rect x="60.385" y="365.97" transform="matrix(0.7669 -0.6418 0.6418 0.7669 -198.7793 184.9277)" style="fill:#FFFFFF;" width="189.529" height="0.197"/>
					
						<rect x="66.601" y="373.396" transform="matrix(0.7669 -0.6418 0.6418 0.7669 -202.0965 190.6484)" style="fill:#FFFFFF;" width="189.529" height="0.197"/>
					
						<rect x="72.816" y="380.823" transform="matrix(0.7669 -0.6418 0.6418 0.7669 -205.4137 196.369)" style="fill:#FFFFFF;" width="189.529" height="0.197"/>
					
						<rect x="79.031" y="388.248" transform="matrix(0.7669 -0.6418 0.6418 0.7669 -208.7307 202.0893)" style="fill:#FFFFFF;" width="189.529" height="0.197"/>
					
						<rect x="85.247" y="395.675" transform="matrix(0.7669 -0.6418 0.6418 0.7669 -212.048 207.81)" style="fill:#FFFFFF;" width="189.529" height="0.197"/>
					
						<rect x="91.462" y="403.101" transform="matrix(0.7669 -0.6418 0.6418 0.7669 -215.3652 213.5309)" style="fill:#FFFFFF;" width="189.529" height="0.197"/>
					
						<rect x="97.678" y="410.527" transform="matrix(0.7669 -0.6418 0.6418 0.7669 -218.6824 219.2514)" style="fill:#FFFFFF;" width="189.529" height="0.197"/>
				</g>
			</g>
			<g>
				<defs>
					
						<ellipse id="SVGID_00000125602250612684329230000016220238577302574749_" transform="matrix(0.7071 -0.7071 0.7071 0.7071 153.31 238.6703)" cx="364.756" cy="-65.726" rx="150.953" ry="150.953"/>
				</defs>
				<clipPath id="SVGID_00000145766502009182276850000017869844304024969661_">
					<use xlink:href="#SVGID_00000125602250612684329230000016220238577302574749_"  style="overflow:visible;"/>
				</clipPath>
				<g style="clip-path:url(#SVGID_00000145766502009182276850000017869844304024969661_);">
					<g>
						
							<rect x="64.43" y="-194.368" transform="matrix(0.7668 -0.6418 0.6418 0.7668 184.6095 119.8455)" style="fill:#F46E6E;" width="385.651" height="0.402"/>
						
							<rect x="77.077" y="-179.257" transform="matrix(0.7669 -0.6418 0.6418 0.7669 177.8503 131.4837)" style="fill:#F46E6E;" width="385.651" height="0.402"/>
						
							<rect x="89.725" y="-164.146" transform="matrix(0.7669 -0.6418 0.6418 0.7669 171.1006 143.1242)" style="fill:#F46E6E;" width="385.651" height="0.402"/>
						
							<rect x="102.371" y="-149.036" transform="matrix(0.7669 -0.6418 0.6418 0.7669 164.3512 154.7636)" style="fill:#F46E6E;" width="385.651" height="0.402"/>
						
							<rect x="115.018" y="-133.926" transform="matrix(0.7669 -0.6418 0.6418 0.7669 157.6013 166.404)" style="fill:#F46E6E;" width="385.651" height="0.402"/>
						
							<rect x="127.665" y="-118.815" transform="matrix(0.7669 -0.6418 0.6418 0.7669 150.8515 178.0444)" style="fill:#F46E6E;" width="385.651" height="0.402"/>
						
							<rect x="140.312" y="-103.704" transform="matrix(0.7669 -0.6418 0.6418 0.7669 144.1017 189.6848)" style="fill:#F46E6E;" width="385.651" height="0.402"/>
						
							<rect x="152.96" y="-88.593" transform="matrix(0.7669 -0.6418 0.6418 0.7669 137.3519 201.3252)" style="fill:#F46E6E;" width="385.651" height="0.402"/>
						
							<rect x="165.606" y="-73.483" transform="matrix(0.7669 -0.6418 0.6418 0.7669 130.6025 212.9646)" style="fill:#F46E6E;" width="385.651" height="0.402"/>
						
							<rect x="178.253" y="-58.372" transform="matrix(0.7669 -0.6418 0.6418 0.7669 123.8526 224.605)" style="fill:#F46E6E;" width="385.651" height="0.402"/>
						
							<rect x="190.9" y="-43.262" transform="matrix(0.7669 -0.6418 0.6418 0.7669 117.1029 236.2455)" style="fill:#F46E6E;" width="385.651" height="0.402"/>
						
							<rect x="203.548" y="-28.151" transform="matrix(0.7669 -0.6418 0.6418 0.7669 110.353 247.8858)" style="fill:#F46E6E;" width="385.651" height="0.402"/>
						
							<rect x="216.195" y="-13.04" transform="matrix(0.7669 -0.6418 0.6418 0.7669 103.6032 259.5262)" style="fill:#F46E6E;" width="385.651" height="0.402"/>
						
							<rect x="228.842" y="2.071" transform="matrix(0.7669 -0.6418 0.6418 0.7669 96.8533 271.1666)" style="fill:#F46E6E;" width="385.651" height="0.402"/>
						
							<rect x="241.488" y="17.181" transform="matrix(0.7669 -0.6418 0.6418 0.7669 90.104 282.8061)" style="fill:#F46E6E;" width="385.651" height="0.402"/>
						
							<rect x="254.135" y="32.292" transform="matrix(0.7669 -0.6418 0.6418 0.7669 83.3542 294.4466)" style="fill:#F46E6E;" width="385.651" height="0.402"/>
						
							<rect x="266.783" y="47.402" transform="matrix(0.7669 -0.6418 0.6418 0.7669 76.6043 306.0869)" style="fill:#F46E6E;" width="385.651" height="0.402"/>
						
							<rect x="279.43" y="62.513" transform="matrix(0.7669 -0.6418 0.6418 0.7669 69.8544 317.7272)" style="fill:#F46E6E;" width="385.651" height="0.402"/>
					</g>
					<g>
						
							<rect x="69.998" y="-186.43" transform="matrix(0.7668 -0.6418 0.6418 0.7668 180.8132 125.2699)" style="fill:#F46E6E;" width="385.651" height="0.402"/>
						
							<rect x="82.645" y="-171.32" transform="matrix(0.7669 -0.6418 0.6418 0.7669 174.054 136.9079)" style="fill:#F46E6E;" width="385.651" height="0.402"/>
						
							<rect x="95.292" y="-156.209" transform="matrix(0.7669 -0.6418 0.6418 0.7669 167.3043 148.5483)" style="fill:#F46E6E;" width="385.651" height="0.402"/>
						
							<rect x="107.939" y="-141.099" transform="matrix(0.7669 -0.6418 0.6418 0.7669 160.5549 160.1878)" style="fill:#F46E6E;" width="385.651" height="0.402"/>
						
							<rect x="120.586" y="-125.988" transform="matrix(0.7669 -0.6418 0.6418 0.7669 153.8051 171.8282)" style="fill:#F46E6E;" width="385.651" height="0.402"/>
						
							<rect x="133.233" y="-110.877" transform="matrix(0.7669 -0.6418 0.6418 0.7669 147.0552 183.4685)" style="fill:#F46E6E;" width="385.651" height="0.402"/>
						
							<rect x="145.88" y="-95.766" transform="matrix(0.7669 -0.6418 0.6418 0.7669 140.3053 195.1089)" style="fill:#F46E6E;" width="385.651" height="0.402"/>
						
							<rect x="158.527" y="-80.656" transform="matrix(0.7669 -0.6418 0.6418 0.7669 133.5556 206.7494)" style="fill:#F46E6E;" width="385.651" height="0.402"/>
						
							<rect x="171.174" y="-65.546" transform="matrix(0.7669 -0.6418 0.6418 0.7669 126.8063 218.3888)" style="fill:#F46E6E;" width="385.651" height="0.402"/>
						
							<rect x="183.821" y="-50.435" transform="matrix(0.7669 -0.6418 0.6418 0.7669 120.0564 230.0292)" style="fill:#F46E6E;" width="385.651" height="0.402"/>
						
							<rect x="196.468" y="-35.324" transform="matrix(0.7669 -0.6418 0.6418 0.7669 113.3065 241.6696)" style="fill:#F46E6E;" width="385.651" height="0.402"/>
						
							<rect x="209.115" y="-20.213" transform="matrix(0.7669 -0.6418 0.6418 0.7669 106.5567 253.31)" style="fill:#F46E6E;" width="385.651" height="0.402"/>
						
							<rect x="221.763" y="-5.102" transform="matrix(0.7669 -0.6418 0.6418 0.7669 99.8069 264.9504)" style="fill:#F46E6E;" width="385.651" height="0.402"/>
						
							<rect x="234.41" y="10.008" transform="matrix(0.7669 -0.6418 0.6418 0.7669 93.057 276.5907)" style="fill:#F46E6E;" width="385.651" height="0.402"/>
						
							<rect x="247.056" y="25.118" transform="matrix(0.7669 -0.6418 0.6418 0.7669 86.3077 288.2302)" style="fill:#F46E6E;" width="385.651" height="0.402"/>
						
							<rect x="259.703" y="40.229" transform="matrix(0.7669 -0.6418 0.6418 0.7669 79.5579 299.8707)" style="fill:#F46E6E;" width="385.651" height="0.402"/>
						
							<rect x="272.35" y="55.34" transform="matrix(0.7669 -0.6418 0.6418 0.7669 72.808 311.511)" style="fill:#F46E6E;" width="385.651" height="0.402"/>
						
							<rect x="284.998" y="70.451" transform="matrix(0.7669 -0.6418 0.6418 0.7669 66.0582 323.1515)" style="fill:#F46E6E;" width="385.651" height="0.402"/>
					</g>
				</g>
			</g>
			<g>
				<defs>
					<circle id="SVGID_00000158746269146874697750000008741370459282230936_" cx="467.441" cy="586.062" r="150.953"/>
				</defs>
				<clipPath id="SVGID_00000137089610811603566640000003830011116240074151_">
					<use xlink:href="#SVGID_00000158746269146874697750000008741370459282230936_"  style="overflow:visible;"/>
				</clipPath>
				<g style="clip-path:url(#SVGID_00000137089610811603566640000003830011116240074151_);">
					<g>
						
							<rect x="167.115" y="457.421" transform="matrix(0.7669 -0.6417 0.6417 0.7669 -209.7777 337.6391)" style="fill:#F46E6E;" width="385.651" height="0.402"/>
						
							<rect x="179.762" y="472.532" transform="matrix(0.7669 -0.6418 0.6418 0.7669 -216.5432 349.3536)" style="fill:#F46E6E;" width="385.651" height="0.402"/>
						
							<rect x="192.41" y="487.643" transform="matrix(0.7669 -0.6418 0.6418 0.7669 -223.293 360.994)" style="fill:#F46E6E;" width="385.651" height="0.402"/>
						
							<rect x="205.056" y="502.752" transform="matrix(0.7669 -0.6418 0.6418 0.7669 -230.0424 372.6336)" style="fill:#F46E6E;" width="385.651" height="0.402"/>
						
							<rect x="217.703" y="517.863" transform="matrix(0.7669 -0.6418 0.6418 0.7669 -236.7922 384.2737)" style="fill:#F46E6E;" width="385.651" height="0.402"/>
						
							<rect x="230.35" y="532.974" transform="matrix(0.7669 -0.6418 0.6418 0.7669 -243.542 395.9141)" style="fill:#F46E6E;" width="385.651" height="0.402"/>
						
							<rect x="242.997" y="548.085" transform="matrix(0.7669 -0.6418 0.6418 0.7669 -250.2919 407.5548)" style="fill:#F46E6E;" width="385.651" height="0.402"/>
						
							<rect x="255.645" y="563.196" transform="matrix(0.7669 -0.6418 0.6418 0.7669 -257.0417 419.195)" style="fill:#F46E6E;" width="385.651" height="0.402"/>
						
							<rect x="268.291" y="578.305" transform="matrix(0.7669 -0.6418 0.6418 0.7669 -263.791 430.8345)" style="fill:#F46E6E;" width="385.651" height="0.402"/>
						
							<rect x="280.938" y="593.416" transform="matrix(0.7669 -0.6418 0.6418 0.7669 -270.5409 442.4748)" style="fill:#F46E6E;" width="385.651" height="0.402"/>
						
							<rect x="293.585" y="608.527" transform="matrix(0.7669 -0.6418 0.6418 0.7669 -277.2907 454.1153)" style="fill:#F46E6E;" width="385.651" height="0.402"/>
						
							<rect x="306.233" y="623.638" transform="matrix(0.7669 -0.6418 0.6418 0.7669 -284.0406 465.7559)" style="fill:#F46E6E;" width="385.651" height="0.402"/>
						
							<rect x="318.88" y="638.749" transform="matrix(0.7669 -0.6418 0.6418 0.7669 -290.7904 477.396)" style="fill:#F46E6E;" width="385.651" height="0.402"/>
						
							<rect x="331.527" y="653.86" transform="matrix(0.7669 -0.6418 0.6418 0.7669 -297.5403 489.0365)" style="fill:#F46E6E;" width="385.651" height="0.402"/>
						
							<rect x="344.173" y="668.969" transform="matrix(0.7669 -0.6418 0.6418 0.7669 -304.2896 500.676)" style="fill:#F46E6E;" width="385.651" height="0.402"/>
						
							<rect x="356.82" y="684.08" transform="matrix(0.7669 -0.6418 0.6418 0.7669 -311.0394 512.3163)" style="fill:#F46E6E;" width="385.651" height="0.402"/>
						
							<rect x="369.468" y="699.191" transform="matrix(0.7669 -0.6418 0.6418 0.7669 -317.7892 523.9568)" style="fill:#F46E6E;" width="385.651" height="0.402"/>
						
							<rect x="382.115" y="714.302" transform="matrix(0.7669 -0.6418 0.6418 0.7669 -324.5391 535.597)" style="fill:#F46E6E;" width="385.651" height="0.402"/>
					</g>
					<g>
						
							<rect x="172.683" y="465.358" transform="matrix(0.7669 -0.6417 0.6417 0.7669 -213.5737 343.062)" style="fill:#F46E6E;" width="385.651" height="0.402"/>
						
							<rect x="185.33" y="480.469" transform="matrix(0.7669 -0.6418 0.6418 0.7669 -220.3395 354.7776)" style="fill:#F46E6E;" width="385.651" height="0.402"/>
						
							<rect x="197.977" y="495.58" transform="matrix(0.7669 -0.6418 0.6418 0.7669 -227.0893 366.4181)" style="fill:#F46E6E;" width="385.651" height="0.402"/>
						
							<rect x="210.624" y="510.69" transform="matrix(0.7669 -0.6418 0.6418 0.7669 -233.8387 378.0577)" style="fill:#F46E6E;" width="385.651" height="0.402"/>
						
							<rect x="223.271" y="525.8" transform="matrix(0.7669 -0.6418 0.6418 0.7669 -240.5885 389.698)" style="fill:#F46E6E;" width="385.651" height="0.402"/>
						
							<rect x="235.918" y="540.911" transform="matrix(0.7669 -0.6418 0.6418 0.7669 -247.3383 401.3384)" style="fill:#F46E6E;" width="385.651" height="0.402"/>
						
							<rect x="248.565" y="556.022" transform="matrix(0.7669 -0.6418 0.6418 0.7669 -254.0882 412.9788)" style="fill:#F46E6E;" width="385.651" height="0.402"/>
						
							<rect x="261.212" y="571.133" transform="matrix(0.7669 -0.6418 0.6418 0.7669 -260.838 424.6192)" style="fill:#F46E6E;" width="385.651" height="0.402"/>
						
							<rect x="273.859" y="586.243" transform="matrix(0.7669 -0.6418 0.6418 0.7669 -267.5873 436.2588)" style="fill:#F46E6E;" width="385.651" height="0.402"/>
						
							<rect x="286.506" y="601.354" transform="matrix(0.7669 -0.6418 0.6418 0.7669 -274.3371 447.8989)" style="fill:#F46E6E;" width="385.651" height="0.402"/>
						
							<rect x="299.153" y="616.464" transform="matrix(0.7669 -0.6418 0.6418 0.7669 -281.087 459.5395)" style="fill:#F46E6E;" width="385.651" height="0.402"/>
						
							<rect x="311.8" y="631.575" transform="matrix(0.7669 -0.6418 0.6418 0.7669 -287.8369 471.1798)" style="fill:#F46E6E;" width="385.651" height="0.402"/>
						
							<rect x="324.448" y="646.686" transform="matrix(0.7669 -0.6418 0.6418 0.7669 -294.5867 482.8202)" style="fill:#F46E6E;" width="385.651" height="0.402"/>
						
							<rect x="337.095" y="661.797" transform="matrix(0.7669 -0.6418 0.6418 0.7669 -301.3365 494.4606)" style="fill:#F46E6E;" width="385.651" height="0.402"/>
						
							<rect x="349.741" y="676.907" transform="matrix(0.7669 -0.6418 0.6418 0.7669 -308.0858 506.0999)" style="fill:#F46E6E;" width="385.651" height="0.402"/>
						
							<rect x="362.388" y="692.018" transform="matrix(0.7669 -0.6418 0.6418 0.7669 -314.8357 517.7405)" style="fill:#F46E6E;" width="385.651" height="0.402"/>
						
							<rect x="375.035" y="707.128" transform="matrix(0.7669 -0.6418 0.6418 0.7669 -321.5856 529.381)" style="fill:#F46E6E;" width="385.651" height="0.402"/>
						
							<rect x="387.683" y="722.239" transform="matrix(0.7669 -0.6418 0.6418 0.7669 -328.3354 541.0211)" style="fill:#F46E6E;" width="385.651" height="0.402"/>
					</g>
				</g>
			</g>
			<g>
				<defs>
					
						<ellipse id="SVGID_00000176723451265840771810000011617912344392028290_" transform="matrix(0.0363 -0.9993 0.9993 0.0363 -366.4575 386.1643)" cx="17.002" cy="383.095" rx="33.742" ry="33.741"/>
				</defs>
				<clipPath id="SVGID_00000128472138466802375950000002044409464439940248_">
					<use xlink:href="#SVGID_00000176723451265840771810000011617912344392028290_"  style="overflow:visible;"/>
				</clipPath>
				<g style="clip-path:url(#SVGID_00000128472138466802375950000002044409464439940248_);">
					<g>
						
							<rect x="-50.127" y="354.341" transform="matrix(0.7667 -0.642 0.642 0.7667 -229.1703 78.1782)" style="fill:#FFDB80;" width="86.202" height="0.09"/>
						
							<rect x="-47.3" y="357.718" transform="matrix(0.7669 -0.6418 0.6418 0.7669 -230.6005 80.7169)" style="fill:#FFDB80;" width="86.202" height="0.09"/>
						
							<rect x="-44.473" y="361.096" transform="matrix(0.7669 -0.6418 0.6418 0.7669 -232.1092 83.3188)" style="fill:#FFDB80;" width="86.202" height="0.09"/>
						
							<rect x="-41.647" y="364.473" transform="matrix(0.7669 -0.6418 0.6418 0.7669 -233.6181 85.9207)" style="fill:#FFDB80;" width="86.202" height="0.09"/>
						
							<rect x="-38.82" y="367.851" transform="matrix(0.7669 -0.6418 0.6418 0.7669 -235.1266 88.5224)" style="fill:#FFDB80;" width="86.202" height="0.09"/>
						
							<rect x="-35.993" y="371.229" transform="matrix(0.7669 -0.6418 0.6418 0.7669 -236.6356 91.1245)" style="fill:#FFDB80;" width="86.202" height="0.09"/>
						
							<rect x="-33.166" y="374.606" transform="matrix(0.7669 -0.6418 0.6418 0.7669 -238.1443 93.7264)" style="fill:#FFDB80;" width="86.202" height="0.09"/>
						
							<rect x="-30.339" y="377.984" transform="matrix(0.7669 -0.6418 0.6418 0.7669 -239.6528 96.328)" style="fill:#FFDB80;" width="86.202" height="0.09"/>
						
							<rect x="-27.512" y="381.361" transform="matrix(0.7669 -0.6418 0.6418 0.7669 -241.1617 98.93)" style="fill:#FFDB80;" width="86.202" height="0.09"/>
						
							<rect x="-24.685" y="384.739" transform="matrix(0.7669 -0.6418 0.6418 0.7669 -242.6702 101.5316)" style="fill:#FFDB80;" width="86.202" height="0.09"/>
						
							<rect x="-21.858" y="388.116" transform="matrix(0.7669 -0.6418 0.6418 0.7669 -244.179 104.1335)" style="fill:#FFDB80;" width="86.202" height="0.09"/>
						
							<rect x="-19.031" y="391.494" transform="matrix(0.7669 -0.6418 0.6418 0.7669 -245.6879 106.7356)" style="fill:#FFDB80;" width="86.202" height="0.09"/>
						
							<rect x="-16.204" y="394.872" transform="matrix(0.7669 -0.6418 0.6418 0.7669 -247.1968 109.3376)" style="fill:#FFDB80;" width="86.202" height="0.09"/>
						
							<rect x="-13.377" y="398.249" transform="matrix(0.7669 -0.6418 0.6418 0.7669 -248.7052 111.9392)" style="fill:#FFDB80;" width="86.202" height="0.09"/>
						
							<rect x="-10.551" y="401.627" transform="matrix(0.7669 -0.6418 0.6418 0.7669 -250.2141 114.5412)" style="fill:#FFDB80;" width="86.202" height="0.09"/>
						
							<rect x="-7.724" y="405.004" transform="matrix(0.7669 -0.6418 0.6418 0.7669 -251.7225 117.1427)" style="fill:#FFDB80;" width="86.202" height="0.09"/>
						
							<rect x="-4.897" y="408.382" transform="matrix(0.7669 -0.6418 0.6418 0.7669 -253.2316 119.745)" style="fill:#FFDB80;" width="86.202" height="0.09"/>
						
							<rect x="-2.07" y="411.76" transform="matrix(0.7669 -0.6418 0.6418 0.7669 -254.7402 122.3468)" style="fill:#FFDB80;" width="86.202" height="0.09"/>
					</g>
					<g>
						
							<rect x="-48.883" y="356.115" transform="matrix(0.7672 -0.6414 0.6414 0.7672 -229.7827 79.1998)" style="fill:#FFDB80;" width="86.202" height="0.09"/>
						
							<rect x="-46.056" y="359.493" transform="matrix(0.7669 -0.6418 0.6418 0.7669 -231.4493 81.9295)" style="fill:#FFDB80;" width="86.202" height="0.09"/>
						
							<rect x="-43.229" y="362.87" transform="matrix(0.7669 -0.6418 0.6418 0.7669 -232.9578 84.5312)" style="fill:#FFDB80;" width="86.202" height="0.09"/>
						
							<rect x="-40.402" y="366.248" transform="matrix(0.7669 -0.6418 0.6418 0.7669 -234.4667 87.1331)" style="fill:#FFDB80;" width="86.202" height="0.09"/>
						
							<rect x="-37.575" y="369.625" transform="matrix(0.7669 -0.6418 0.6418 0.7669 -235.9752 89.7348)" style="fill:#FFDB80;" width="86.202" height="0.09"/>
						
							<rect x="-34.748" y="373.003" transform="matrix(0.7669 -0.6418 0.6418 0.7669 -237.4842 92.3369)" style="fill:#FFDB80;" width="86.202" height="0.09"/>
						
							<rect x="-31.921" y="376.38" transform="matrix(0.7669 -0.6418 0.6418 0.7669 -238.9929 94.9388)" style="fill:#FFDB80;" width="86.202" height="0.09"/>
						
							<rect x="-29.094" y="379.758" transform="matrix(0.7669 -0.6418 0.6418 0.7669 -240.5014 97.5405)" style="fill:#FFDB80;" width="86.202" height="0.09"/>
						
							<rect x="-26.268" y="383.135" transform="matrix(0.7669 -0.6418 0.6418 0.7669 -242.0103 100.1424)" style="fill:#FFDB80;" width="86.202" height="0.09"/>
						
							<rect x="-23.441" y="386.513" transform="matrix(0.7669 -0.6418 0.6418 0.7669 -243.519 102.7443)" style="fill:#FFDB80;" width="86.202" height="0.09"/>
						
							<rect x="-20.614" y="389.891" transform="matrix(0.7669 -0.6418 0.6418 0.7669 -245.0275 105.346)" style="fill:#FFDB80;" width="86.202" height="0.09"/>
						
							<rect x="-17.787" y="393.268" transform="matrix(0.7669 -0.6418 0.6418 0.7669 -246.5365 107.9481)" style="fill:#FFDB80;" width="86.202" height="0.09"/>
						
							<rect x="-14.96" y="396.646" transform="matrix(0.7669 -0.6418 0.6418 0.7669 -248.0452 110.5499)" style="fill:#FFDB80;" width="86.202" height="0.09"/>
						
							<rect x="-12.133" y="400.024" transform="matrix(0.7669 -0.6418 0.6418 0.7669 -249.5538 113.1516)" style="fill:#FFDB80;" width="86.202" height="0.09"/>
						
							<rect x="-9.306" y="403.401" transform="matrix(0.7669 -0.6418 0.6418 0.7669 -251.0627 115.7536)" style="fill:#FFDB80;" width="86.202" height="0.09"/>
						
							<rect x="-6.479" y="406.779" transform="matrix(0.7669 -0.6418 0.6418 0.7669 -252.5711 118.3552)" style="fill:#FFDB80;" width="86.202" height="0.09"/>
						
							<rect x="-3.652" y="410.156" transform="matrix(0.7669 -0.6418 0.6418 0.7669 -254.0799 120.9572)" style="fill:#FFDB80;" width="86.202" height="0.09"/>
						
							<rect x="-0.825" y="413.534" transform="matrix(0.7669 -0.6418 0.6418 0.7669 -255.5889 123.5593)" style="fill:#FFDB80;" width="86.202" height="0.09"/>
					</g>
				</g>
			</g>
			<g>
				<defs>
					
						<ellipse id="SVGID_00000165224632268747251560000009423610390888842369_" transform="matrix(0.2227 -0.9749 0.9749 0.2227 377.3357 687.0961)" cx="619.557" cy="106.915" rx="42.648" ry="42.648"/>
				</defs>
				<clipPath id="SVGID_00000029038111832350220920000005519616075109917622_">
					<use xlink:href="#SVGID_00000165224632268747251560000009423610390888842369_"  style="overflow:visible;"/>
				</clipPath>
				<g style="clip-path:url(#SVGID_00000029038111832350220920000005519616075109917622_);">
					
						<rect x="534.707" y="70.57" transform="matrix(0.7665 -0.6423 0.6423 0.7665 92.2224 394.9035)" style="fill:#6BD6D1;" width="108.957" height="0.113"/>
					
						<rect x="538.28" y="74.839" transform="matrix(0.7669 -0.6418 0.6418 0.7669 90.131 397.9095)" style="fill:#6BD6D1;" width="108.957" height="0.114"/>
					
						<rect x="541.853" y="79.109" transform="matrix(0.7669 -0.6418 0.6418 0.7669 88.2238 401.198)" style="fill:#6BD6D1;" width="108.957" height="0.113"/>
					
						<rect x="545.426" y="83.378" transform="matrix(0.7669 -0.6418 0.6418 0.7669 86.3169 404.4864)" style="fill:#6BD6D1;" width="108.957" height="0.113"/>
					
						<rect x="548.999" y="87.647" transform="matrix(0.7669 -0.6418 0.6418 0.7669 84.4099 407.7751)" style="fill:#6BD6D1;" width="108.957" height="0.113"/>
					
						<rect x="552.572" y="91.916" transform="matrix(0.7669 -0.6418 0.6418 0.7669 82.5029 411.0638)" style="fill:#6BD6D1;" width="108.957" height="0.113"/>
					
						<rect x="556.145" y="96.185" transform="matrix(0.7669 -0.6418 0.6418 0.7669 80.5959 414.3526)" style="fill:#6BD6D1;" width="108.957" height="0.114"/>
					
						<rect x="559.719" y="100.455" transform="matrix(0.7669 -0.6418 0.6418 0.7669 78.689 417.6416)" style="fill:#6BD6D1;" width="108.957" height="0.113"/>
					
						<rect x="563.292" y="104.723" transform="matrix(0.7669 -0.6418 0.6418 0.7669 76.7822 420.9301)" style="fill:#6BD6D1;" width="108.957" height="0.114"/>
					
						<rect x="566.865" y="108.993" transform="matrix(0.7669 -0.6418 0.6418 0.7669 74.875 424.2185)" style="fill:#6BD6D1;" width="108.957" height="0.113"/>
					
						<rect x="570.438" y="113.262" transform="matrix(0.7669 -0.6418 0.6418 0.7669 72.968 427.5072)" style="fill:#6BD6D1;" width="108.957" height="0.113"/>
					
						<rect x="574.011" y="117.531" transform="matrix(0.7669 -0.6418 0.6418 0.7669 71.061 430.796)" style="fill:#6BD6D1;" width="108.957" height="0.114"/>
					
						<rect x="577.584" y="121.8" transform="matrix(0.7669 -0.6418 0.6418 0.7669 69.1539 434.0847)" style="fill:#6BD6D1;" width="108.957" height="0.114"/>
					
						<rect x="581.157" y="126.07" transform="matrix(0.7669 -0.6418 0.6418 0.7669 67.2471 437.3737)" style="fill:#6BD6D1;" width="108.957" height="0.113"/>
					
						<rect x="584.73" y="130.338" transform="matrix(0.7669 -0.6418 0.6418 0.7669 65.3402 440.6622)" style="fill:#6BD6D1;" width="108.957" height="0.113"/>
					
						<rect x="588.304" y="134.608" transform="matrix(0.7669 -0.6418 0.6418 0.7669 63.4332 443.951)" style="fill:#6BD6D1;" width="108.957" height="0.113"/>
					
						<rect x="591.877" y="138.877" transform="matrix(0.7669 -0.6418 0.6418 0.7669 61.5258 447.2389)" style="fill:#6BD6D1;" width="108.957" height="0.113"/>
					
						<rect x="595.45" y="143.146" transform="matrix(0.7669 -0.6418 0.6418 0.7669 59.619 450.5281)" style="fill:#6BD6D1;" width="108.957" height="0.114"/>
				</g>
			</g>
			<g>
				<defs>
					
						<ellipse id="SVGID_00000145051033093693098340000000806132557475340683_" transform="matrix(0.0897 -0.996 0.996 0.0897 355.9089 760.6908)" cx="594.106" cy="185.638" rx="25.399" ry="25.399"/>
				</defs>
				<clipPath id="SVGID_00000001647853837728601600000012634430240297233799_">
					<use xlink:href="#SVGID_00000145051033093693098340000000806132557475340683_"  style="overflow:visible;"/>
				</clipPath>
				<g style="clip-path:url(#SVGID_00000001647853837728601600000012634430240297233799_);">
					<g>
						
							<rect x="543.573" y="163.993" transform="matrix(0.7665 -0.6422 0.6422 0.7665 29.147 408.2269)" style="fill:#FFDB80;" width="64.89" height="0.068"/>
						
							<rect x="545.701" y="166.536" transform="matrix(0.7669 -0.6418 0.6418 0.7669 27.8858 409.9044)" style="fill:#FFDB80;" width="64.89" height="0.068"/>
						
							<rect x="547.829" y="169.078" transform="matrix(0.7669 -0.6418 0.6418 0.7669 26.7499 411.8625)" style="fill:#FFDB80;" width="64.89" height="0.068"/>
						
							<rect x="549.957" y="171.621" transform="matrix(0.7669 -0.6418 0.6418 0.7669 25.6145 413.8216)" style="fill:#FFDB80;" width="64.89" height="0.068"/>
						
							<rect x="552.085" y="174.163" transform="matrix(0.7669 -0.6418 0.6418 0.7669 24.4788 415.7802)" style="fill:#FFDB80;" width="64.89" height="0.068"/>
						
							<rect x="554.213" y="176.706" transform="matrix(0.7669 -0.6418 0.6418 0.7669 23.343 417.7388)" style="fill:#FFDB80;" width="64.89" height="0.068"/>
						
							<rect x="556.341" y="179.248" transform="matrix(0.7669 -0.6418 0.6418 0.7669 22.2071 419.6968)" style="fill:#FFDB80;" width="64.89" height="0.068"/>
						
							<rect x="558.469" y="181.791" transform="matrix(0.7669 -0.6418 0.6418 0.7669 21.0713 421.6555)" style="fill:#FFDB80;" width="64.89" height="0.068"/>
						
							<rect x="560.597" y="184.333" transform="matrix(0.7669 -0.6418 0.6418 0.7669 19.9359 423.6144)" style="fill:#FFDB80;" width="64.89" height="0.068"/>
						
							<rect x="562.725" y="186.876" transform="matrix(0.7669 -0.6418 0.6418 0.7669 18.7999 425.5724)" style="fill:#FFDB80;" width="64.89" height="0.068"/>
						
							<rect x="564.853" y="189.418" transform="matrix(0.7669 -0.6418 0.6418 0.7669 17.6642 427.531)" style="fill:#FFDB80;" width="64.89" height="0.068"/>
						
							<rect x="566.981" y="191.961" transform="matrix(0.7669 -0.6418 0.6418 0.7669 16.5285 429.4897)" style="fill:#FFDB80;" width="64.89" height="0.068"/>
						
							<rect x="569.109" y="194.503" transform="matrix(0.7669 -0.6418 0.6418 0.7669 15.393 431.4489)" style="fill:#FFDB80;" width="64.89" height="0.068"/>
						
							<rect x="571.237" y="197.046" transform="matrix(0.7669 -0.6418 0.6418 0.7669 14.2573 433.4076)" style="fill:#FFDB80;" width="64.89" height="0.068"/>
						
							<rect x="573.365" y="199.588" transform="matrix(0.7669 -0.6418 0.6418 0.7669 13.1214 435.3653)" style="fill:#FFDB80;" width="64.89" height="0.068"/>
						
							<rect x="575.493" y="202.131" transform="matrix(0.7669 -0.6418 0.6418 0.7669 11.9859 437.3245)" style="fill:#FFDB80;" width="64.89" height="0.068"/>
						
							<rect x="577.621" y="204.673" transform="matrix(0.7669 -0.6418 0.6418 0.7669 10.8502 439.2831)" style="fill:#FFDB80;" width="64.89" height="0.068"/>
						
							<rect x="579.749" y="207.216" transform="matrix(0.7669 -0.6418 0.6418 0.7669 9.7144 441.2418)" style="fill:#FFDB80;" width="64.89" height="0.068"/>
					</g>
					<g>
						
							<rect x="544.51" y="165.329" transform="matrix(0.7671 -0.6415 0.6415 0.7671 28.2768 408.6197)" style="fill:#FFDB80;" width="64.89" height="0.068"/>
						
							<rect x="546.638" y="167.871" transform="matrix(0.7669 -0.6418 0.6418 0.7669 27.2468 410.8165)" style="fill:#FFDB80;" width="64.89" height="0.068"/>
						
							<rect x="548.766" y="170.414" transform="matrix(0.7669 -0.6418 0.6418 0.7669 26.1111 412.7751)" style="fill:#FFDB80;" width="64.89" height="0.068"/>
						
							<rect x="550.894" y="172.956" transform="matrix(0.7669 -0.6418 0.6418 0.7669 24.9757 414.7342)" style="fill:#FFDB80;" width="64.89" height="0.068"/>
						
							<rect x="553.022" y="175.499" transform="matrix(0.7669 -0.6418 0.6418 0.7669 23.8397 416.6922)" style="fill:#FFDB80;" width="64.89" height="0.068"/>
						
							<rect x="555.15" y="178.041" transform="matrix(0.7669 -0.6418 0.6418 0.7669 22.704 418.6508)" style="fill:#FFDB80;" width="64.89" height="0.068"/>
						
							<rect x="557.278" y="180.584" transform="matrix(0.7669 -0.6418 0.6418 0.7669 21.5685 420.61)" style="fill:#FFDB80;" width="64.89" height="0.068"/>
						
							<rect x="559.406" y="183.126" transform="matrix(0.7669 -0.6418 0.6418 0.7669 20.4328 422.5686)" style="fill:#FFDB80;" width="64.89" height="0.068"/>
						
							<rect x="561.534" y="185.669" transform="matrix(0.7669 -0.6418 0.6418 0.7669 19.2969 424.5265)" style="fill:#FFDB80;" width="64.89" height="0.068"/>
						
							<rect x="563.662" y="188.211" transform="matrix(0.7669 -0.6418 0.6418 0.7669 18.1612 426.4851)" style="fill:#FFDB80;" width="64.89" height="0.068"/>
						
							<rect x="565.79" y="190.754" transform="matrix(0.7669 -0.6418 0.6418 0.7669 17.0257 428.4443)" style="fill:#FFDB80;" width="64.89" height="0.068"/>
						
							<rect x="567.918" y="193.296" transform="matrix(0.7669 -0.6418 0.6418 0.7669 15.89 430.4029)" style="fill:#FFDB80;" width="64.89" height="0.068"/>
						
							<rect x="570.046" y="195.839" transform="matrix(0.7669 -0.6418 0.6418 0.7669 14.7542 432.3615)" style="fill:#FFDB80;" width="64.89" height="0.068"/>
						
							<rect x="572.174" y="198.381" transform="matrix(0.7669 -0.6418 0.6418 0.7669 13.6183 434.3195)" style="fill:#FFDB80;" width="64.89" height="0.068"/>
						
							<rect x="574.302" y="200.924" transform="matrix(0.7669 -0.6418 0.6418 0.7669 12.4829 436.2786)" style="fill:#FFDB80;" width="64.89" height="0.068"/>
						
							<rect x="576.43" y="203.466" transform="matrix(0.7669 -0.6418 0.6418 0.7669 11.3471 438.2372)" style="fill:#FFDB80;" width="64.89" height="0.068"/>
						
							<rect x="578.557" y="206.009" transform="matrix(0.7669 -0.6418 0.6418 0.7669 10.2112 440.1952)" style="fill:#FFDB80;" width="64.89" height="0.068"/>
						
							<rect x="580.686" y="208.551" transform="matrix(0.7669 -0.6418 0.6418 0.7669 9.0755 442.1538)" style="fill:#FFDB80;" width="64.89" height="0.068"/>
					</g>
				</g>
			</g>
		</g>
		<g style="clip-path:url(#SVGID_00000173853329505900143220000003687575412406479777_);">
			<g>
				<polygon style="fill:#FFDB80;" points="406.532,439.86 385.164,421.602 367.752,436.481 359.842,427.223 385.164,405.585 
					406.532,423.843 423.944,408.965 431.855,418.223 				"/>
			</g>
			<g>
				<polygon style="fill:#FFDB80;" points="-43.405,55.203 -64.773,36.945 -82.185,51.823 -90.095,42.565 -64.773,20.927 
					-43.405,39.185 -25.993,24.307 -18.082,33.565 				"/>
			</g>
			<g>
				<polygon style="fill:#FFDB80;" points="587.472,11.991 566.105,-6.267 548.693,8.611 540.782,-0.647 566.105,-22.284 
					587.472,-4.027 604.885,-18.905 612.795,-9.647 				"/>
			</g>
			<g>
				<polygon style="fill:#FFDB80;" points="99.607,520.888 78.24,502.629 60.827,517.508 52.917,508.25 78.24,486.612 
					99.607,504.87 117.02,489.992 124.93,499.25 				"/>
			</g>
			<g>
				<polygon style="fill:#FFDB80;" points="-17.698,331.499 -39.066,313.241 -56.478,328.12 -64.389,318.862 -39.066,297.224 
					-17.698,315.482 -0.286,300.604 7.624,309.862 				"/>
			</g>
			<g>
				<polygon style="fill:#FFDB80;" points="318.169,72.34 296.802,54.083 279.389,68.961 271.479,59.703 296.802,38.065 
					318.169,56.323 335.582,41.445 343.492,50.703 				"/>
			</g>
			<g>
				<polygon style="fill:#FFDB80;" points="734.273,116.489 712.905,98.231 695.493,113.11 687.583,103.852 712.905,82.214 
					734.273,100.472 751.685,85.594 759.596,94.852 				"/>
			</g>
			<g>
				<polygon style="fill:#FFDB80;" points="662.26,507.527 640.892,489.269 623.48,504.147 615.57,494.889 640.892,473.252 
					662.26,491.509 679.672,476.632 687.583,485.889 				"/>
			</g>
		</g>
		<g style="clip-path:url(#SVGID_00000173853329505900143220000003687575412406479777_);">
			<g>
				<polygon style="fill:#6BD6D1;" points="62.241,309.789 54.408,303.096 48.024,308.55 45.124,305.156 54.408,297.224 
					62.241,303.917 68.624,298.463 71.524,301.857 				"/>
			</g>
			<g>
				<polygon style="fill:#6BD6D1;" points="510.505,465.225 502.672,458.531 496.288,463.986 493.389,460.592 502.672,452.66 
					510.505,459.353 516.888,453.898 519.788,457.292 				"/>
			</g>
			<g>
				<polygon style="fill:#6BD6D1;" points="692.993,210.704 685.159,204.01 678.776,209.464 675.876,206.07 685.159,198.138 
					692.993,204.831 699.376,199.377 702.276,202.771 				"/>
			</g>
			<g>
				<polygon style="fill:#6BD6D1;" points="686.36,6.283 678.527,-0.411 672.144,5.044 669.244,1.65 678.527,-6.283 686.36,0.411 
					692.743,-5.044 695.643,-1.65 				"/>
			</g>
			<g>
				<polygon style="fill:#6BD6D1;" points="347.409,377.293 339.575,370.6 333.192,376.054 330.292,372.66 339.575,364.728 
					347.409,371.421 353.792,365.967 356.692,369.361 				"/>
			</g>
			<g>
				<polygon style="fill:#6BD6D1;" points="3.917,479.534 -3.917,472.841 -10.3,478.295 -13.2,474.901 -3.917,466.969 
					3.917,473.662 10.3,468.208 13.2,471.602 				"/>
			</g>
			<g>
				<polygon style="fill:#6BD6D1;" points="373.379,100.698 365.546,94.004 359.163,99.459 356.263,96.064 365.546,88.132 
					373.379,94.826 379.762,89.371 382.662,92.765 				"/>
			</g>
			<g>
				<polygon style="fill:#6BD6D1;" points="44.792,72.406 36.959,65.712 30.576,71.167 27.676,67.773 36.959,59.84 44.792,66.534 
					51.175,61.079 54.075,64.473 				"/>
			</g>
		</g>
		<g style="clip-path:url(#SVGID_00000173853329505900143220000003687575412406479777_);">
			<g>
				<path style="fill:#FFFFFF;" d="M560.365,376.065c-0.641,0-1.16,0.519-1.16,1.16c0,0.641,0.519,1.16,1.16,1.16
					c0.64,0,1.16-0.519,1.16-1.16C561.525,376.584,561.005,376.065,560.365,376.065z"/>
				<path style="fill:#FFFFFF;" d="M567.018,376.065c-0.641,0-1.16,0.519-1.16,1.16c0,0.641,0.519,1.16,1.16,1.16
					c0.64,0,1.16-0.519,1.16-1.16C568.177,376.584,567.658,376.065,567.018,376.065z"/>
				<path style="fill:#FFFFFF;" d="M573.67,376.065c-0.64,0-1.16,0.519-1.16,1.16c0,0.641,0.519,1.16,1.16,1.16
					c0.641,0,1.16-0.519,1.16-1.16C574.83,376.584,574.311,376.065,573.67,376.065z"/>
				<path style="fill:#FFFFFF;" d="M580.323,376.065c-0.64,0-1.16,0.519-1.16,1.16c0,0.641,0.519,1.16,1.16,1.16
					c0.641,0,1.16-0.519,1.16-1.16C581.483,376.584,580.964,376.065,580.323,376.065z"/>
				<path style="fill:#FFFFFF;" d="M586.976,376.065c-0.64,0-1.16,0.519-1.16,1.16c0,0.641,0.519,1.16,1.16,1.16
					c0.641,0,1.16-0.519,1.16-1.16C588.135,376.584,587.616,376.065,586.976,376.065z"/>
				<path style="fill:#FFFFFF;" d="M593.628,376.065c-0.64,0-1.16,0.519-1.16,1.16c0,0.641,0.519,1.16,1.16,1.16
					c0.641,0,1.16-0.519,1.16-1.16C594.788,376.584,594.269,376.065,593.628,376.065z"/>
				<path style="fill:#FFFFFF;" d="M600.281,376.065c-0.64,0-1.16,0.519-1.16,1.16c0,0.641,0.519,1.16,1.16,1.16
					c0.641,0,1.16-0.519,1.16-1.16C601.441,376.584,600.922,376.065,600.281,376.065z"/>
				<path style="fill:#FFFFFF;" d="M606.934,376.065c-0.64,0-1.16,0.519-1.16,1.16c0,0.641,0.519,1.16,1.16,1.16
					c0.64,0,1.16-0.519,1.16-1.16C608.094,376.584,607.574,376.065,606.934,376.065z"/>
				<path style="fill:#FFFFFF;" d="M613.587,376.065c-0.641,0-1.16,0.519-1.16,1.16c0,0.641,0.519,1.16,1.16,1.16
					c0.64,0,1.16-0.519,1.16-1.16C614.746,376.584,614.227,376.065,613.587,376.065z"/>
				<path style="fill:#FFFFFF;" d="M620.239,376.065c-0.641,0-1.16,0.519-1.16,1.16c0,0.641,0.519,1.16,1.16,1.16
					c0.64,0,1.16-0.519,1.16-1.16C621.399,376.584,620.88,376.065,620.239,376.065z"/>
				<path style="fill:#FFFFFF;" d="M626.892,376.065c-0.641,0-1.16,0.519-1.16,1.16c0,0.641,0.519,1.16,1.16,1.16
					c0.64,0,1.16-0.519,1.16-1.16C628.052,376.584,627.532,376.065,626.892,376.065z"/>
				<path style="fill:#FFFFFF;" d="M633.545,376.065c-0.641,0-1.16,0.519-1.16,1.16c0,0.641,0.519,1.16,1.16,1.16
					c0.64,0,1.16-0.519,1.16-1.16C634.704,376.584,634.185,376.065,633.545,376.065z"/>
				<path style="fill:#FFFFFF;" d="M640.197,376.065c-0.64,0-1.16,0.519-1.16,1.16c0,0.641,0.519,1.16,1.16,1.16
					c0.641,0,1.16-0.519,1.16-1.16C641.357,376.584,640.838,376.065,640.197,376.065z"/>
				<path style="fill:#FFFFFF;" d="M646.85,376.065c-0.64,0-1.16,0.519-1.16,1.16c0,0.641,0.519,1.16,1.16,1.16
					c0.641,0,1.16-0.519,1.16-1.16C648.01,376.584,647.49,376.065,646.85,376.065z"/>
				<path style="fill:#FFFFFF;" d="M653.503,376.065c-0.641,0-1.16,0.519-1.16,1.16c0,0.641,0.519,1.16,1.16,1.16
					s1.16-0.519,1.16-1.16C654.662,376.584,654.143,376.065,653.503,376.065z"/>
				<path style="fill:#FFFFFF;" d="M660.155,376.065c-0.641,0-1.16,0.519-1.16,1.16c0,0.641,0.519,1.16,1.16,1.16
					s1.16-0.519,1.16-1.16C661.315,376.584,660.796,376.065,660.155,376.065z"/>
				<path style="fill:#FFFFFF;" d="M666.808,376.065c-0.641,0-1.16,0.519-1.16,1.16c0,0.641,0.519,1.16,1.16,1.16
					c0.64,0,1.16-0.519,1.16-1.16C667.968,376.584,667.448,376.065,666.808,376.065z"/>
				<path style="fill:#FFFFFF;" d="M673.461,378.384c0.64,0,1.16-0.519,1.16-1.16c0-0.64-0.519-1.16-1.16-1.16
					s-1.16,0.519-1.16,1.16C672.301,377.865,672.82,378.384,673.461,378.384z"/>
				<path style="fill:#FFFFFF;" d="M560.365,382.351c-0.641,0-1.16,0.519-1.16,1.16c0,0.64,0.519,1.16,1.16,1.16
					c0.64,0,1.16-0.519,1.16-1.16C561.525,382.87,561.005,382.351,560.365,382.351z"/>
				<path style="fill:#FFFFFF;" d="M567.018,382.351c-0.641,0-1.16,0.519-1.16,1.16c0,0.64,0.519,1.16,1.16,1.16
					c0.64,0,1.16-0.519,1.16-1.16C568.177,382.87,567.658,382.351,567.018,382.351z"/>
				<path style="fill:#FFFFFF;" d="M573.67,382.351c-0.64,0-1.16,0.519-1.16,1.16c0,0.64,0.519,1.16,1.16,1.16
					c0.641,0,1.16-0.519,1.16-1.16C574.83,382.87,574.311,382.351,573.67,382.351z"/>
				<path style="fill:#FFFFFF;" d="M580.323,382.351c-0.64,0-1.16,0.519-1.16,1.16c0,0.64,0.519,1.16,1.16,1.16
					c0.641,0,1.16-0.519,1.16-1.16C581.483,382.87,580.964,382.351,580.323,382.351z"/>
				<path style="fill:#FFFFFF;" d="M586.976,382.351c-0.64,0-1.16,0.519-1.16,1.16c0,0.64,0.519,1.16,1.16,1.16
					c0.641,0,1.16-0.519,1.16-1.16C588.135,382.87,587.616,382.351,586.976,382.351z"/>
				<path style="fill:#FFFFFF;" d="M593.628,382.351c-0.64,0-1.16,0.519-1.16,1.16c0,0.64,0.519,1.16,1.16,1.16
					c0.641,0,1.16-0.519,1.16-1.16C594.788,382.87,594.269,382.351,593.628,382.351z"/>
				<path style="fill:#FFFFFF;" d="M600.281,382.351c-0.64,0-1.16,0.519-1.16,1.16c0,0.64,0.519,1.16,1.16,1.16
					c0.641,0,1.16-0.519,1.16-1.16C601.441,382.87,600.922,382.351,600.281,382.351z"/>
				<path style="fill:#FFFFFF;" d="M606.934,382.351c-0.64,0-1.16,0.519-1.16,1.16c0,0.64,0.519,1.16,1.16,1.16
					c0.64,0,1.16-0.519,1.16-1.16C608.094,382.87,607.574,382.351,606.934,382.351z"/>
				<path style="fill:#FFFFFF;" d="M613.587,382.351c-0.641,0-1.16,0.519-1.16,1.16c0,0.64,0.519,1.16,1.16,1.16
					c0.64,0,1.16-0.519,1.16-1.16C614.746,382.87,614.227,382.351,613.587,382.351z"/>
				<path style="fill:#FFFFFF;" d="M620.239,382.351c-0.641,0-1.16,0.519-1.16,1.16c0,0.64,0.519,1.16,1.16,1.16
					c0.64,0,1.16-0.519,1.16-1.16C621.399,382.87,620.88,382.351,620.239,382.351z"/>
				<path style="fill:#FFFFFF;" d="M626.892,382.351c-0.641,0-1.16,0.519-1.16,1.16c0,0.64,0.519,1.16,1.16,1.16
					c0.64,0,1.16-0.519,1.16-1.16C628.052,382.87,627.532,382.351,626.892,382.351z"/>
				<path style="fill:#FFFFFF;" d="M633.545,382.351c-0.641,0-1.16,0.519-1.16,1.16c0,0.64,0.519,1.16,1.16,1.16
					c0.64,0,1.16-0.519,1.16-1.16C634.704,382.87,634.185,382.351,633.545,382.351z"/>
				<path style="fill:#FFFFFF;" d="M640.197,382.351c-0.64,0-1.16,0.519-1.16,1.16c0,0.64,0.519,1.16,1.16,1.16
					c0.641,0,1.16-0.519,1.16-1.16C641.357,382.87,640.838,382.351,640.197,382.351z"/>
				<path style="fill:#FFFFFF;" d="M646.85,382.351c-0.64,0-1.16,0.519-1.16,1.16c0,0.64,0.519,1.16,1.16,1.16
					c0.641,0,1.16-0.519,1.16-1.16C648.01,382.87,647.49,382.351,646.85,382.351z"/>
				<path style="fill:#FFFFFF;" d="M653.503,382.351c-0.641,0-1.16,0.519-1.16,1.16c0,0.64,0.519,1.16,1.16,1.16
					s1.16-0.519,1.16-1.16C654.662,382.87,654.143,382.351,653.503,382.351z"/>
				<path style="fill:#FFFFFF;" d="M660.155,382.351c-0.641,0-1.16,0.519-1.16,1.16c0,0.64,0.519,1.16,1.16,1.16
					s1.16-0.519,1.16-1.16C661.315,382.87,660.796,382.351,660.155,382.351z"/>
				<path style="fill:#FFFFFF;" d="M666.808,382.351c-0.641,0-1.16,0.519-1.16,1.16c0,0.64,0.519,1.16,1.16,1.16
					c0.64,0,1.16-0.519,1.16-1.16C667.968,382.87,667.448,382.351,666.808,382.351z"/>
				<path style="fill:#FFFFFF;" d="M673.461,382.351c-0.64,0-1.16,0.519-1.16,1.16c0,0.64,0.519,1.16,1.16,1.16
					s1.16-0.519,1.16-1.16C674.62,382.87,674.101,382.351,673.461,382.351z"/>
				<path style="fill:#FFFFFF;" d="M560.365,388.638c-0.641,0-1.16,0.519-1.16,1.16c0,0.641,0.519,1.16,1.16,1.16
					c0.64,0,1.16-0.519,1.16-1.16C561.525,389.157,561.005,388.638,560.365,388.638z"/>
				<path style="fill:#FFFFFF;" d="M567.018,388.638c-0.641,0-1.16,0.519-1.16,1.16c0,0.641,0.519,1.16,1.16,1.16
					c0.64,0,1.16-0.519,1.16-1.16C568.177,389.157,567.658,388.638,567.018,388.638z"/>
				<path style="fill:#FFFFFF;" d="M573.67,388.638c-0.64,0-1.16,0.519-1.16,1.16c0,0.641,0.519,1.16,1.16,1.16
					c0.641,0,1.16-0.519,1.16-1.16C574.83,389.157,574.311,388.638,573.67,388.638z"/>
				<path style="fill:#FFFFFF;" d="M580.323,388.638c-0.64,0-1.16,0.519-1.16,1.16c0,0.641,0.519,1.16,1.16,1.16
					c0.641,0,1.16-0.519,1.16-1.16C581.483,389.157,580.964,388.638,580.323,388.638z"/>
				<path style="fill:#FFFFFF;" d="M586.976,388.638c-0.64,0-1.16,0.519-1.16,1.16c0,0.641,0.519,1.16,1.16,1.16
					c0.641,0,1.16-0.519,1.16-1.16C588.135,389.157,587.616,388.638,586.976,388.638z"/>
				<path style="fill:#FFFFFF;" d="M593.628,388.638c-0.64,0-1.16,0.519-1.16,1.16c0,0.641,0.519,1.16,1.16,1.16
					c0.641,0,1.16-0.519,1.16-1.16C594.788,389.157,594.269,388.638,593.628,388.638z"/>
				<path style="fill:#FFFFFF;" d="M600.281,388.638c-0.64,0-1.16,0.519-1.16,1.16c0,0.641,0.519,1.16,1.16,1.16
					c0.641,0,1.16-0.519,1.16-1.16C601.441,389.157,600.922,388.638,600.281,388.638z"/>
				<path style="fill:#FFFFFF;" d="M606.934,388.638c-0.64,0-1.16,0.519-1.16,1.16c0,0.641,0.519,1.16,1.16,1.16
					c0.64,0,1.16-0.519,1.16-1.16C608.094,389.157,607.574,388.638,606.934,388.638z"/>
				<path style="fill:#FFFFFF;" d="M613.587,388.638c-0.641,0-1.16,0.519-1.16,1.16c0,0.641,0.519,1.16,1.16,1.16
					c0.64,0,1.16-0.519,1.16-1.16C614.746,389.157,614.227,388.638,613.587,388.638z"/>
				<path style="fill:#FFFFFF;" d="M620.239,388.638c-0.641,0-1.16,0.519-1.16,1.16c0,0.641,0.519,1.16,1.16,1.16
					c0.64,0,1.16-0.519,1.16-1.16C621.399,389.157,620.88,388.638,620.239,388.638z"/>
				<path style="fill:#FFFFFF;" d="M626.892,388.638c-0.641,0-1.16,0.519-1.16,1.16c0,0.641,0.519,1.16,1.16,1.16
					c0.64,0,1.16-0.519,1.16-1.16C628.052,389.157,627.532,388.638,626.892,388.638z"/>
				<path style="fill:#FFFFFF;" d="M633.545,388.638c-0.641,0-1.16,0.519-1.16,1.16c0,0.641,0.519,1.16,1.16,1.16
					c0.64,0,1.16-0.519,1.16-1.16C634.704,389.157,634.185,388.638,633.545,388.638z"/>
				<path style="fill:#FFFFFF;" d="M640.197,388.638c-0.64,0-1.16,0.519-1.16,1.16c0,0.641,0.519,1.16,1.16,1.16
					c0.641,0,1.16-0.519,1.16-1.16C641.357,389.157,640.838,388.638,640.197,388.638z"/>
				<path style="fill:#FFFFFF;" d="M646.85,388.638c-0.64,0-1.16,0.519-1.16,1.16c0,0.641,0.519,1.16,1.16,1.16
					c0.641,0,1.16-0.519,1.16-1.16C648.01,389.157,647.49,388.638,646.85,388.638z"/>
				<path style="fill:#FFFFFF;" d="M653.503,388.638c-0.641,0-1.16,0.519-1.16,1.16c0,0.641,0.519,1.16,1.16,1.16
					s1.16-0.519,1.16-1.16C654.662,389.157,654.143,388.638,653.503,388.638z"/>
				<path style="fill:#FFFFFF;" d="M660.155,388.638c-0.641,0-1.16,0.519-1.16,1.16c0,0.641,0.519,1.16,1.16,1.16
					s1.16-0.519,1.16-1.16C661.315,389.157,660.796,388.638,660.155,388.638z"/>
				<path style="fill:#FFFFFF;" d="M666.808,388.638c-0.641,0-1.16,0.519-1.16,1.16c0,0.641,0.519,1.16,1.16,1.16
					c0.64,0,1.16-0.519,1.16-1.16C667.968,389.157,667.448,388.638,666.808,388.638z"/>
				<path style="fill:#FFFFFF;" d="M673.461,388.638c-0.64,0-1.16,0.519-1.16,1.16c0,0.641,0.519,1.16,1.16,1.16
					s1.16-0.519,1.16-1.16C674.62,389.157,674.101,388.638,673.461,388.638z"/>
			</g>
			<g>
				<path style="fill:#F46E6E;" d="M-44.031,427.66c-0.64,0-1.16,0.519-1.16,1.16c0,0.64,0.519,1.16,1.16,1.16
					c0.64,0,1.16-0.519,1.16-1.16C-42.872,428.179-43.391,427.66-44.031,427.66z"/>
				<path style="fill:#F46E6E;" d="M-37.379,427.66c-0.64,0-1.16,0.519-1.16,1.16c0,0.64,0.519,1.16,1.16,1.16
					c0.64,0,1.16-0.519,1.16-1.16C-36.219,428.179-36.738,427.66-37.379,427.66z"/>
				<path style="fill:#F46E6E;" d="M-30.726,427.66c-0.64,0-1.16,0.519-1.16,1.16c0,0.64,0.519,1.16,1.16,1.16s1.16-0.519,1.16-1.16
					C-29.566,428.179-30.086,427.66-30.726,427.66z"/>
				<path style="fill:#F46E6E;" d="M-24.073,427.66c-0.641,0-1.16,0.519-1.16,1.16c0,0.64,0.519,1.16,1.16,1.16
					c0.64,0,1.16-0.519,1.16-1.16C-22.914,428.179-23.433,427.66-24.073,427.66z"/>
				<path style="fill:#F46E6E;" d="M-17.421,427.66c-0.64,0-1.16,0.519-1.16,1.16c0,0.64,0.519,1.16,1.16,1.16
					c0.64,0,1.16-0.519,1.16-1.16C-16.261,428.179-16.78,427.66-17.421,427.66z"/>
				<path style="fill:#F46E6E;" d="M-10.768,427.66c-0.64,0-1.16,0.519-1.16,1.16c0,0.64,0.519,1.16,1.16,1.16
					c0.64,0,1.16-0.519,1.16-1.16C-9.608,428.179-10.127,427.66-10.768,427.66z"/>
				<path style="fill:#F46E6E;" d="M-4.115,427.66c-0.64,0-1.16,0.519-1.16,1.16c0,0.64,0.519,1.16,1.16,1.16
					c0.64,0,1.16-0.519,1.16-1.16C-2.956,428.179-3.475,427.66-4.115,427.66z"/>
				<path style="fill:#F46E6E;" d="M2.537,427.66c-0.64,0-1.16,0.519-1.16,1.16c0,0.64,0.519,1.16,1.16,1.16
					c0.64,0,1.16-0.519,1.16-1.16C3.697,428.179,3.178,427.66,2.537,427.66z"/>
				<path style="fill:#F46E6E;" d="M9.19,427.66c-0.64,0-1.16,0.519-1.16,1.16c0,0.64,0.519,1.16,1.16,1.16
					c0.64,0,1.16-0.519,1.16-1.16C10.35,428.179,9.831,427.66,9.19,427.66z"/>
				<path style="fill:#F46E6E;" d="M15.843,427.66c-0.641,0-1.16,0.519-1.16,1.16c0,0.64,0.519,1.16,1.16,1.16
					c0.64,0,1.16-0.519,1.16-1.16C17.003,428.179,16.483,427.66,15.843,427.66z"/>
				<path style="fill:#F46E6E;" d="M22.496,427.66c-0.641,0-1.16,0.519-1.16,1.16c0,0.64,0.519,1.16,1.16,1.16
					c0.64,0,1.16-0.519,1.16-1.16C23.655,428.179,23.136,427.66,22.496,427.66z"/>
				<path style="fill:#F46E6E;" d="M29.148,427.66c-0.64,0-1.16,0.519-1.16,1.16c0,0.64,0.519,1.16,1.16,1.16
					c0.64,0,1.16-0.519,1.16-1.16C30.308,428.179,29.789,427.66,29.148,427.66z"/>
				<path style="fill:#F46E6E;" d="M35.801,427.66c-0.64,0-1.16,0.519-1.16,1.16c0,0.64,0.519,1.16,1.16,1.16
					c0.64,0,1.16-0.519,1.16-1.16C36.96,428.179,36.441,427.66,35.801,427.66z"/>
				<path style="fill:#F46E6E;" d="M42.453,427.66c-0.64,0-1.16,0.519-1.16,1.16c0,0.64,0.519,1.16,1.16,1.16
					c0.641,0,1.16-0.519,1.16-1.16C43.613,428.179,43.094,427.66,42.453,427.66z"/>
				<path style="fill:#F46E6E;" d="M49.106,427.66c-0.64,0-1.16,0.519-1.16,1.16c0,0.64,0.519,1.16,1.16,1.16
					c0.64,0,1.16-0.519,1.16-1.16C50.266,428.179,49.747,427.66,49.106,427.66z"/>
				<path style="fill:#F46E6E;" d="M55.759,427.66c-0.64,0-1.16,0.519-1.16,1.16c0,0.64,0.519,1.16,1.16,1.16
					c0.64,0,1.16-0.519,1.16-1.16C56.919,428.179,56.399,427.66,55.759,427.66z"/>
				<path style="fill:#F46E6E;" d="M62.412,427.66c-0.64,0-1.16,0.519-1.16,1.16c0,0.64,0.519,1.16,1.16,1.16
					c0.641,0,1.16-0.519,1.16-1.16C63.571,428.179,63.052,427.66,62.412,427.66z"/>
				<path style="fill:#F46E6E;" d="M69.064,429.979c0.64,0,1.16-0.519,1.16-1.16c0-0.64-0.519-1.16-1.16-1.16
					c-0.64,0-1.16,0.519-1.16,1.16C67.905,429.46,68.424,429.979,69.064,429.979z"/>
				<path style="fill:#F46E6E;" d="M-44.031,433.946c-0.64,0-1.16,0.519-1.16,1.16c0,0.64,0.519,1.16,1.16,1.16
					c0.64,0,1.16-0.519,1.16-1.16C-42.872,434.465-43.391,433.946-44.031,433.946z"/>
				<path style="fill:#F46E6E;" d="M-37.379,433.946c-0.64,0-1.16,0.519-1.16,1.16c0,0.64,0.519,1.16,1.16,1.16
					c0.64,0,1.16-0.519,1.16-1.16C-36.219,434.465-36.738,433.946-37.379,433.946z"/>
				<path style="fill:#F46E6E;" d="M-30.726,433.946c-0.64,0-1.16,0.519-1.16,1.16c0,0.64,0.519,1.16,1.16,1.16
					s1.16-0.519,1.16-1.16C-29.566,434.465-30.086,433.946-30.726,433.946z"/>
				<path style="fill:#F46E6E;" d="M-24.073,433.946c-0.641,0-1.16,0.519-1.16,1.16c0,0.64,0.519,1.16,1.16,1.16
					c0.64,0,1.16-0.519,1.16-1.16C-22.914,434.465-23.433,433.946-24.073,433.946z"/>
				<path style="fill:#F46E6E;" d="M-17.421,433.946c-0.64,0-1.16,0.519-1.16,1.16c0,0.64,0.519,1.16,1.16,1.16
					c0.64,0,1.16-0.519,1.16-1.16C-16.261,434.465-16.78,433.946-17.421,433.946z"/>
				<path style="fill:#F46E6E;" d="M-10.768,433.946c-0.64,0-1.16,0.519-1.16,1.16c0,0.64,0.519,1.16,1.16,1.16
					c0.64,0,1.16-0.519,1.16-1.16C-9.608,434.465-10.127,433.946-10.768,433.946z"/>
				<path style="fill:#F46E6E;" d="M-4.115,433.946c-0.64,0-1.16,0.519-1.16,1.16c0,0.64,0.519,1.16,1.16,1.16
					c0.64,0,1.16-0.519,1.16-1.16C-2.956,434.465-3.475,433.946-4.115,433.946z"/>
				<path style="fill:#F46E6E;" d="M2.537,433.946c-0.64,0-1.16,0.519-1.16,1.16c0,0.64,0.519,1.16,1.16,1.16
					c0.64,0,1.16-0.519,1.16-1.16C3.697,434.465,3.178,433.946,2.537,433.946z"/>
				<path style="fill:#F46E6E;" d="M9.19,433.946c-0.64,0-1.16,0.519-1.16,1.16c0,0.64,0.519,1.16,1.16,1.16
					c0.64,0,1.16-0.519,1.16-1.16C10.35,434.465,9.831,433.946,9.19,433.946z"/>
				<path style="fill:#F46E6E;" d="M15.843,433.946c-0.641,0-1.16,0.519-1.16,1.16c0,0.64,0.519,1.16,1.16,1.16
					c0.64,0,1.16-0.519,1.16-1.16C17.003,434.465,16.483,433.946,15.843,433.946z"/>
				<path style="fill:#F46E6E;" d="M22.496,433.946c-0.641,0-1.16,0.519-1.16,1.16c0,0.64,0.519,1.16,1.16,1.16
					c0.64,0,1.16-0.519,1.16-1.16C23.655,434.465,23.136,433.946,22.496,433.946z"/>
				<path style="fill:#F46E6E;" d="M29.148,433.946c-0.64,0-1.16,0.519-1.16,1.16c0,0.64,0.519,1.16,1.16,1.16
					c0.64,0,1.16-0.519,1.16-1.16C30.308,434.465,29.789,433.946,29.148,433.946z"/>
				<path style="fill:#F46E6E;" d="M35.801,433.946c-0.64,0-1.16,0.519-1.16,1.16c0,0.64,0.519,1.16,1.16,1.16
					c0.64,0,1.16-0.519,1.16-1.16C36.96,434.465,36.441,433.946,35.801,433.946z"/>
				<path style="fill:#F46E6E;" d="M42.453,433.946c-0.64,0-1.16,0.519-1.16,1.16c0,0.64,0.519,1.16,1.16,1.16
					c0.641,0,1.16-0.519,1.16-1.16C43.613,434.465,43.094,433.946,42.453,433.946z"/>
				<path style="fill:#F46E6E;" d="M49.106,433.946c-0.64,0-1.16,0.519-1.16,1.16c0,0.64,0.519,1.16,1.16,1.16
					c0.64,0,1.16-0.519,1.16-1.16C50.266,434.465,49.747,433.946,49.106,433.946z"/>
				<path style="fill:#F46E6E;" d="M55.759,433.946c-0.64,0-1.16,0.519-1.16,1.16c0,0.64,0.519,1.16,1.16,1.16
					c0.64,0,1.16-0.519,1.16-1.16C56.919,434.465,56.399,433.946,55.759,433.946z"/>
				<path style="fill:#F46E6E;" d="M62.412,433.946c-0.64,0-1.16,0.519-1.16,1.16c0,0.64,0.519,1.16,1.16,1.16
					c0.641,0,1.16-0.519,1.16-1.16C63.571,434.465,63.052,433.946,62.412,433.946z"/>
				<path style="fill:#F46E6E;" d="M69.064,433.946c-0.64,0-1.16,0.519-1.16,1.16c0,0.64,0.519,1.16,1.16,1.16
					c0.64,0,1.16-0.519,1.16-1.16C70.224,434.465,69.705,433.946,69.064,433.946z"/>
				<path style="fill:#F46E6E;" d="M-44.031,440.233c-0.64,0-1.16,0.519-1.16,1.16s0.519,1.16,1.16,1.16
					c0.64,0,1.16-0.519,1.16-1.16S-43.391,440.233-44.031,440.233z"/>
				<path style="fill:#F46E6E;" d="M-37.379,440.233c-0.64,0-1.16,0.519-1.16,1.16s0.519,1.16,1.16,1.16
					c0.64,0,1.16-0.519,1.16-1.16S-36.738,440.233-37.379,440.233z"/>
				<path style="fill:#F46E6E;" d="M-30.726,440.233c-0.64,0-1.16,0.519-1.16,1.16s0.519,1.16,1.16,1.16s1.16-0.519,1.16-1.16
					S-30.086,440.233-30.726,440.233z"/>
				<path style="fill:#F46E6E;" d="M-24.073,440.233c-0.641,0-1.16,0.519-1.16,1.16s0.519,1.16,1.16,1.16
					c0.64,0,1.16-0.519,1.16-1.16S-23.433,440.233-24.073,440.233z"/>
				<path style="fill:#F46E6E;" d="M-17.421,440.233c-0.64,0-1.16,0.519-1.16,1.16s0.519,1.16,1.16,1.16
					c0.64,0,1.16-0.519,1.16-1.16S-16.78,440.233-17.421,440.233z"/>
				<path style="fill:#F46E6E;" d="M-10.768,440.233c-0.64,0-1.16,0.519-1.16,1.16s0.519,1.16,1.16,1.16
					c0.64,0,1.16-0.519,1.16-1.16S-10.127,440.233-10.768,440.233z"/>
				<path style="fill:#F46E6E;" d="M-4.115,440.233c-0.64,0-1.16,0.519-1.16,1.16s0.519,1.16,1.16,1.16c0.64,0,1.16-0.519,1.16-1.16
					S-3.475,440.233-4.115,440.233z"/>
				<path style="fill:#F46E6E;" d="M2.537,440.233c-0.64,0-1.16,0.519-1.16,1.16s0.519,1.16,1.16,1.16c0.64,0,1.16-0.519,1.16-1.16
					S3.178,440.233,2.537,440.233z"/>
				<path style="fill:#F46E6E;" d="M9.19,440.233c-0.64,0-1.16,0.519-1.16,1.16s0.519,1.16,1.16,1.16c0.64,0,1.16-0.519,1.16-1.16
					S9.831,440.233,9.19,440.233z"/>
				<path style="fill:#F46E6E;" d="M15.843,440.233c-0.641,0-1.16,0.519-1.16,1.16s0.519,1.16,1.16,1.16
					c0.64,0,1.16-0.519,1.16-1.16S16.483,440.233,15.843,440.233z"/>
				<path style="fill:#F46E6E;" d="M22.496,440.233c-0.641,0-1.16,0.519-1.16,1.16s0.519,1.16,1.16,1.16
					c0.64,0,1.16-0.519,1.16-1.16S23.136,440.233,22.496,440.233z"/>
				<path style="fill:#F46E6E;" d="M29.148,440.233c-0.64,0-1.16,0.519-1.16,1.16s0.519,1.16,1.16,1.16c0.64,0,1.16-0.519,1.16-1.16
					S29.789,440.233,29.148,440.233z"/>
				<path style="fill:#F46E6E;" d="M35.801,440.233c-0.64,0-1.16,0.519-1.16,1.16s0.519,1.16,1.16,1.16c0.64,0,1.16-0.519,1.16-1.16
					S36.441,440.233,35.801,440.233z"/>
				<path style="fill:#F46E6E;" d="M42.453,440.233c-0.64,0-1.16,0.519-1.16,1.16s0.519,1.16,1.16,1.16
					c0.641,0,1.16-0.519,1.16-1.16S43.094,440.233,42.453,440.233z"/>
				<path style="fill:#F46E6E;" d="M49.106,440.233c-0.64,0-1.16,0.519-1.16,1.16s0.519,1.16,1.16,1.16c0.64,0,1.16-0.519,1.16-1.16
					S49.747,440.233,49.106,440.233z"/>
				<path style="fill:#F46E6E;" d="M55.759,440.233c-0.64,0-1.16,0.519-1.16,1.16s0.519,1.16,1.16,1.16c0.64,0,1.16-0.519,1.16-1.16
					S56.399,440.233,55.759,440.233z"/>
				<path style="fill:#F46E6E;" d="M62.412,440.233c-0.64,0-1.16,0.519-1.16,1.16s0.519,1.16,1.16,1.16
					c0.641,0,1.16-0.519,1.16-1.16S63.052,440.233,62.412,440.233z"/>
				<path style="fill:#F46E6E;" d="M69.064,440.233c-0.64,0-1.16,0.519-1.16,1.16s0.519,1.16,1.16,1.16c0.64,0,1.16-0.519,1.16-1.16
					S69.705,440.233,69.064,440.233z"/>
			</g>
			<g>
				<path style="fill:#F46E6E;" d="M664.98,32.88c-0.641,0-1.16,0.519-1.16,1.16c0,0.64,0.519,1.16,1.16,1.16
					c0.64,0,1.16-0.519,1.16-1.16C666.139,33.399,665.62,32.88,664.98,32.88z"/>
				<path style="fill:#F46E6E;" d="M671.633,32.88c-0.641,0-1.16,0.519-1.16,1.16c0,0.64,0.519,1.16,1.16,1.16
					c0.64,0,1.16-0.519,1.16-1.16C672.792,33.399,672.273,32.88,671.633,32.88z"/>
				<path style="fill:#F46E6E;" d="M678.285,32.88c-0.641,0-1.16,0.519-1.16,1.16c0,0.64,0.519,1.16,1.16,1.16
					c0.64,0,1.16-0.519,1.16-1.16C679.445,33.399,678.926,32.88,678.285,32.88z"/>
				<path style="fill:#F46E6E;" d="M684.938,32.88c-0.641,0-1.16,0.519-1.16,1.16c0,0.64,0.519,1.16,1.16,1.16
					c0.64,0,1.16-0.519,1.16-1.16C686.097,33.399,685.578,32.88,684.938,32.88z"/>
				<path style="fill:#F46E6E;" d="M691.59,32.88c-0.64,0-1.16,0.519-1.16,1.16c0,0.64,0.519,1.16,1.16,1.16
					c0.641,0,1.16-0.519,1.16-1.16C692.75,33.399,692.231,32.88,691.59,32.88z"/>
				<path style="fill:#F46E6E;" d="M698.243,32.88c-0.64,0-1.16,0.519-1.16,1.16c0,0.64,0.519,1.16,1.16,1.16
					c0.641,0,1.16-0.519,1.16-1.16C699.403,33.399,698.884,32.88,698.243,32.88z"/>
				<path style="fill:#F46E6E;" d="M704.896,32.88c-0.64,0-1.16,0.519-1.16,1.16c0,0.64,0.519,1.16,1.16,1.16
					c0.641,0,1.16-0.519,1.16-1.16C706.056,33.399,705.536,32.88,704.896,32.88z"/>
				<path style="fill:#F46E6E;" d="M711.549,32.88c-0.64,0-1.16,0.519-1.16,1.16c0,0.64,0.519,1.16,1.16,1.16
					c0.641,0,1.16-0.519,1.16-1.16C712.708,33.399,712.189,32.88,711.549,32.88z"/>
				<path style="fill:#F46E6E;" d="M718.201,32.88c-0.641,0-1.16,0.519-1.16,1.16c0,0.64,0.519,1.16,1.16,1.16s1.16-0.519,1.16-1.16
					C719.361,33.399,718.842,32.88,718.201,32.88z"/>
				<path style="fill:#F46E6E;" d="M724.854,32.88c-0.641,0-1.16,0.519-1.16,1.16c0,0.64,0.519,1.16,1.16,1.16
					c0.64,0,1.16-0.519,1.16-1.16C726.014,33.399,725.494,32.88,724.854,32.88z"/>
				<path style="fill:#F46E6E;" d="M731.507,32.88c-0.64,0-1.16,0.519-1.16,1.16c0,0.64,0.519,1.16,1.16,1.16s1.16-0.519,1.16-1.16
					C732.666,33.399,732.147,32.88,731.507,32.88z"/>
				<path style="fill:#F46E6E;" d="M738.159,32.88c-0.641,0-1.16,0.519-1.16,1.16c0,0.64,0.519,1.16,1.16,1.16
					c0.64,0,1.16-0.519,1.16-1.16C739.319,33.399,738.8,32.88,738.159,32.88z"/>
				<path style="fill:#F46E6E;" d="M744.812,32.88c-0.64,0-1.16,0.519-1.16,1.16c0,0.64,0.519,1.16,1.16,1.16s1.16-0.519,1.16-1.16
					C745.972,33.399,745.452,32.88,744.812,32.88z"/>
				<path style="fill:#F46E6E;" d="M751.465,32.88c-0.64,0-1.16,0.519-1.16,1.16c0,0.64,0.519,1.16,1.16,1.16
					c0.641,0,1.16-0.519,1.16-1.16C752.624,33.399,752.105,32.88,751.465,32.88z"/>
				<path style="fill:#F46E6E;" d="M758.117,32.88c-0.641,0-1.16,0.519-1.16,1.16c0,0.64,0.519,1.16,1.16,1.16s1.16-0.519,1.16-1.16
					C759.277,33.399,758.758,32.88,758.117,32.88z"/>
				<path style="fill:#F46E6E;" d="M764.77,32.88c-0.641,0-1.16,0.519-1.16,1.16c0,0.64,0.519,1.16,1.16,1.16s1.16-0.519,1.16-1.16
					C765.93,33.399,765.411,32.88,764.77,32.88z"/>
				<path style="fill:#F46E6E;" d="M771.423,32.88c-0.641,0-1.16,0.519-1.16,1.16c0,0.64,0.519,1.16,1.16,1.16
					c0.64,0,1.16-0.519,1.16-1.16C772.582,33.399,772.063,32.88,771.423,32.88z"/>
				<path style="fill:#F46E6E;" d="M778.076,35.199c0.64,0,1.16-0.519,1.16-1.16c0-0.64-0.519-1.16-1.16-1.16
					c-0.641,0-1.16,0.519-1.16,1.16C776.916,34.68,777.435,35.199,778.076,35.199z"/>
				<path style="fill:#F46E6E;" d="M664.98,39.166c-0.641,0-1.16,0.519-1.16,1.16c0,0.641,0.519,1.16,1.16,1.16
					c0.64,0,1.16-0.519,1.16-1.16C666.139,39.685,665.62,39.166,664.98,39.166z"/>
				<path style="fill:#F46E6E;" d="M671.633,39.166c-0.641,0-1.16,0.519-1.16,1.16c0,0.641,0.519,1.16,1.16,1.16
					c0.64,0,1.16-0.519,1.16-1.16C672.792,39.685,672.273,39.166,671.633,39.166z"/>
				<path style="fill:#F46E6E;" d="M678.285,39.166c-0.641,0-1.16,0.519-1.16,1.16c0,0.641,0.519,1.16,1.16,1.16
					c0.64,0,1.16-0.519,1.16-1.16C679.445,39.685,678.926,39.166,678.285,39.166z"/>
				<path style="fill:#F46E6E;" d="M684.938,39.166c-0.641,0-1.16,0.519-1.16,1.16c0,0.641,0.519,1.16,1.16,1.16
					c0.64,0,1.16-0.519,1.16-1.16C686.097,39.685,685.578,39.166,684.938,39.166z"/>
				<path style="fill:#F46E6E;" d="M691.59,39.166c-0.64,0-1.16,0.519-1.16,1.16c0,0.641,0.519,1.16,1.16,1.16
					c0.641,0,1.16-0.519,1.16-1.16C692.75,39.685,692.231,39.166,691.59,39.166z"/>
				<path style="fill:#F46E6E;" d="M698.243,39.166c-0.64,0-1.16,0.519-1.16,1.16c0,0.641,0.519,1.16,1.16,1.16
					c0.641,0,1.16-0.519,1.16-1.16C699.403,39.685,698.884,39.166,698.243,39.166z"/>
				<path style="fill:#F46E6E;" d="M704.896,39.166c-0.64,0-1.16,0.519-1.16,1.16c0,0.641,0.519,1.16,1.16,1.16
					c0.641,0,1.16-0.519,1.16-1.16C706.056,39.685,705.536,39.166,704.896,39.166z"/>
				<path style="fill:#F46E6E;" d="M711.549,39.166c-0.64,0-1.16,0.519-1.16,1.16c0,0.641,0.519,1.16,1.16,1.16
					c0.641,0,1.16-0.519,1.16-1.16C712.708,39.685,712.189,39.166,711.549,39.166z"/>
				<path style="fill:#F46E6E;" d="M718.201,39.166c-0.641,0-1.16,0.519-1.16,1.16c0,0.641,0.519,1.16,1.16,1.16
					s1.16-0.519,1.16-1.16C719.361,39.685,718.842,39.166,718.201,39.166z"/>
				<path style="fill:#F46E6E;" d="M724.854,39.166c-0.641,0-1.16,0.519-1.16,1.16c0,0.641,0.519,1.16,1.16,1.16
					c0.64,0,1.16-0.519,1.16-1.16C726.014,39.685,725.494,39.166,724.854,39.166z"/>
				<path style="fill:#F46E6E;" d="M731.507,39.166c-0.64,0-1.16,0.519-1.16,1.16c0,0.641,0.519,1.16,1.16,1.16
					s1.16-0.519,1.16-1.16C732.666,39.685,732.147,39.166,731.507,39.166z"/>
				<path style="fill:#F46E6E;" d="M738.159,39.166c-0.641,0-1.16,0.519-1.16,1.16c0,0.641,0.519,1.16,1.16,1.16
					c0.64,0,1.16-0.519,1.16-1.16C739.319,39.685,738.8,39.166,738.159,39.166z"/>
				<path style="fill:#F46E6E;" d="M744.812,39.166c-0.64,0-1.16,0.519-1.16,1.16c0,0.641,0.519,1.16,1.16,1.16
					s1.16-0.519,1.16-1.16C745.972,39.685,745.452,39.166,744.812,39.166z"/>
				<path style="fill:#F46E6E;" d="M751.465,39.166c-0.64,0-1.16,0.519-1.16,1.16c0,0.641,0.519,1.16,1.16,1.16
					c0.641,0,1.16-0.519,1.16-1.16C752.624,39.685,752.105,39.166,751.465,39.166z"/>
				<path style="fill:#F46E6E;" d="M758.117,39.166c-0.641,0-1.16,0.519-1.16,1.16c0,0.641,0.519,1.16,1.16,1.16
					s1.16-0.519,1.16-1.16C759.277,39.685,758.758,39.166,758.117,39.166z"/>
				<path style="fill:#F46E6E;" d="M764.77,39.166c-0.641,0-1.16,0.519-1.16,1.16c0,0.641,0.519,1.16,1.16,1.16
					s1.16-0.519,1.16-1.16C765.93,39.685,765.411,39.166,764.77,39.166z"/>
				<path style="fill:#F46E6E;" d="M771.423,39.166c-0.641,0-1.16,0.519-1.16,1.16c0,0.641,0.519,1.16,1.16,1.16
					c0.64,0,1.16-0.519,1.16-1.16C772.582,39.685,772.063,39.166,771.423,39.166z"/>
				<path style="fill:#F46E6E;" d="M778.076,39.166c-0.641,0-1.16,0.519-1.16,1.16c0,0.641,0.519,1.16,1.16,1.16
					c0.64,0,1.16-0.519,1.16-1.16C779.235,39.685,778.716,39.166,778.076,39.166z"/>
				<path style="fill:#F46E6E;" d="M664.98,45.453c-0.641,0-1.16,0.519-1.16,1.16c0,0.64,0.519,1.16,1.16,1.16
					c0.64,0,1.16-0.519,1.16-1.16C666.139,45.972,665.62,45.453,664.98,45.453z"/>
				<path style="fill:#F46E6E;" d="M671.633,45.453c-0.641,0-1.16,0.519-1.16,1.16c0,0.64,0.519,1.16,1.16,1.16
					c0.64,0,1.16-0.519,1.16-1.16C672.792,45.972,672.273,45.453,671.633,45.453z"/>
				<path style="fill:#F46E6E;" d="M678.285,45.453c-0.641,0-1.16,0.519-1.16,1.16c0,0.64,0.519,1.16,1.16,1.16
					c0.64,0,1.16-0.519,1.16-1.16C679.445,45.972,678.926,45.453,678.285,45.453z"/>
				<path style="fill:#F46E6E;" d="M684.938,45.453c-0.641,0-1.16,0.519-1.16,1.16c0,0.64,0.519,1.16,1.16,1.16
					c0.64,0,1.16-0.519,1.16-1.16C686.097,45.972,685.578,45.453,684.938,45.453z"/>
				<path style="fill:#F46E6E;" d="M691.59,45.453c-0.64,0-1.16,0.519-1.16,1.16c0,0.64,0.519,1.16,1.16,1.16
					c0.641,0,1.16-0.519,1.16-1.16C692.75,45.972,692.231,45.453,691.59,45.453z"/>
				<path style="fill:#F46E6E;" d="M698.243,45.453c-0.64,0-1.16,0.519-1.16,1.16c0,0.64,0.519,1.16,1.16,1.16
					c0.641,0,1.16-0.519,1.16-1.16C699.403,45.972,698.884,45.453,698.243,45.453z"/>
				<path style="fill:#F46E6E;" d="M704.896,45.453c-0.64,0-1.16,0.519-1.16,1.16c0,0.64,0.519,1.16,1.16,1.16
					c0.641,0,1.16-0.519,1.16-1.16C706.056,45.972,705.536,45.453,704.896,45.453z"/>
				<path style="fill:#F46E6E;" d="M711.549,45.453c-0.64,0-1.16,0.519-1.16,1.16c0,0.64,0.519,1.16,1.16,1.16
					c0.641,0,1.16-0.519,1.16-1.16C712.708,45.972,712.189,45.453,711.549,45.453z"/>
				<path style="fill:#F46E6E;" d="M718.201,45.453c-0.641,0-1.16,0.519-1.16,1.16c0,0.64,0.519,1.16,1.16,1.16
					s1.16-0.519,1.16-1.16C719.361,45.972,718.842,45.453,718.201,45.453z"/>
				<path style="fill:#F46E6E;" d="M724.854,45.453c-0.641,0-1.16,0.519-1.16,1.16c0,0.64,0.519,1.16,1.16,1.16
					c0.64,0,1.16-0.519,1.16-1.16C726.014,45.972,725.494,45.453,724.854,45.453z"/>
				<path style="fill:#F46E6E;" d="M731.507,45.453c-0.64,0-1.16,0.519-1.16,1.16c0,0.64,0.519,1.16,1.16,1.16s1.16-0.519,1.16-1.16
					C732.666,45.972,732.147,45.453,731.507,45.453z"/>
				<path style="fill:#F46E6E;" d="M738.159,45.453c-0.641,0-1.16,0.519-1.16,1.16c0,0.64,0.519,1.16,1.16,1.16
					c0.64,0,1.16-0.519,1.16-1.16C739.319,45.972,738.8,45.453,738.159,45.453z"/>
				<path style="fill:#F46E6E;" d="M744.812,45.453c-0.64,0-1.16,0.519-1.16,1.16c0,0.64,0.519,1.16,1.16,1.16s1.16-0.519,1.16-1.16
					C745.972,45.972,745.452,45.453,744.812,45.453z"/>
				<path style="fill:#F46E6E;" d="M751.465,45.453c-0.64,0-1.16,0.519-1.16,1.16c0,0.64,0.519,1.16,1.16,1.16
					c0.641,0,1.16-0.519,1.16-1.16C752.624,45.972,752.105,45.453,751.465,45.453z"/>
				<path style="fill:#F46E6E;" d="M758.117,45.453c-0.641,0-1.16,0.519-1.16,1.16c0,0.64,0.519,1.16,1.16,1.16
					s1.16-0.519,1.16-1.16C759.277,45.972,758.758,45.453,758.117,45.453z"/>
				<path style="fill:#F46E6E;" d="M764.77,45.453c-0.641,0-1.16,0.519-1.16,1.16c0,0.64,0.519,1.16,1.16,1.16s1.16-0.519,1.16-1.16
					C765.93,45.972,765.411,45.453,764.77,45.453z"/>
				<path style="fill:#F46E6E;" d="M771.423,45.453c-0.641,0-1.16,0.519-1.16,1.16c0,0.64,0.519,1.16,1.16,1.16
					c0.64,0,1.16-0.519,1.16-1.16C772.582,45.972,772.063,45.453,771.423,45.453z"/>
				<path style="fill:#F46E6E;" d="M778.076,45.453c-0.641,0-1.16,0.519-1.16,1.16c0,0.64,0.519,1.16,1.16,1.16
					c0.64,0,1.16-0.519,1.16-1.16C779.235,45.972,778.716,45.453,778.076,45.453z"/>
			</g>
			<g>
				<path style="fill:#FFDB80;" d="M141.93-6.885c0-0.64-0.519-1.16-1.16-1.16c-0.641,0-1.16,0.519-1.16,1.16
					c0,0.64,0.519,1.16,1.16,1.16C141.411-5.725,141.93-6.244,141.93-6.885z"/>
				<path style="fill:#FFDB80;" d="M141.93-0.232c0-0.64-0.519-1.16-1.16-1.16c-0.641,0-1.16,0.519-1.16,1.16
					c0,0.64,0.519,1.16,1.16,1.16C141.411,0.927,141.93,0.408,141.93-0.232z"/>
				<path style="fill:#FFDB80;" d="M141.93,6.421c0-0.64-0.519-1.16-1.16-1.16c-0.641,0-1.16,0.519-1.16,1.16
					c0,0.64,0.519,1.16,1.16,1.16C141.411,7.58,141.93,7.061,141.93,6.421z"/>
				<path style="fill:#FFDB80;" d="M141.93,13.073c0-0.64-0.519-1.16-1.16-1.16c-0.641,0-1.16,0.519-1.16,1.16
					c0,0.641,0.519,1.16,1.16,1.16C141.411,14.233,141.93,13.714,141.93,13.073z"/>
				<path style="fill:#FFDB80;" d="M141.93,19.726c0-0.64-0.519-1.16-1.16-1.16c-0.641,0-1.16,0.519-1.16,1.16
					c0,0.64,0.519,1.16,1.16,1.16C141.411,20.886,141.93,20.366,141.93,19.726z"/>
				<path style="fill:#FFDB80;" d="M141.93,26.379c0-0.64-0.519-1.16-1.16-1.16c-0.641,0-1.16,0.519-1.16,1.16s0.519,1.16,1.16,1.16
					C141.411,27.538,141.93,27.019,141.93,26.379z"/>
				<path style="fill:#FFDB80;" d="M141.93,33.031c0-0.64-0.519-1.16-1.16-1.16c-0.641,0-1.16,0.519-1.16,1.16s0.519,1.16,1.16,1.16
					C141.411,34.191,141.93,33.672,141.93,33.031z"/>
				<path style="fill:#FFDB80;" d="M141.93,39.684c0-0.64-0.519-1.16-1.16-1.16c-0.641,0-1.16,0.519-1.16,1.16
					c0,0.64,0.519,1.16,1.16,1.16C141.411,40.844,141.93,40.324,141.93,39.684z"/>
				<path style="fill:#FFDB80;" d="M141.93,46.337c0-0.64-0.519-1.16-1.16-1.16c-0.641,0-1.16,0.519-1.16,1.16
					c0,0.64,0.519,1.16,1.16,1.16C141.411,47.496,141.93,46.977,141.93,46.337z"/>
				<path style="fill:#FFDB80;" d="M141.93,52.989c0-0.64-0.519-1.16-1.16-1.16c-0.641,0-1.16,0.519-1.16,1.16
					c0,0.64,0.519,1.16,1.16,1.16C141.411,54.149,141.93,53.63,141.93,52.989z"/>
				<path style="fill:#FFDB80;" d="M141.93,59.642c0-0.641-0.519-1.16-1.16-1.16c-0.641,0-1.16,0.519-1.16,1.16
					c0,0.64,0.519,1.16,1.16,1.16C141.411,60.802,141.93,60.283,141.93,59.642z"/>
				<path style="fill:#FFDB80;" d="M141.93,66.295c0-0.641-0.519-1.16-1.16-1.16c-0.641,0-1.16,0.519-1.16,1.16
					c0,0.64,0.519,1.16,1.16,1.16C141.411,67.454,141.93,66.935,141.93,66.295z"/>
				<path style="fill:#FFDB80;" d="M141.93,72.947c0-0.64-0.519-1.16-1.16-1.16c-0.641,0-1.16,0.519-1.16,1.16
					c0,0.64,0.519,1.16,1.16,1.16C141.411,74.107,141.93,73.588,141.93,72.947z"/>
				<path style="fill:#FFDB80;" d="M141.93,79.6c0-0.64-0.519-1.16-1.16-1.16c-0.641,0-1.16,0.519-1.16,1.16
					c0,0.641,0.519,1.16,1.16,1.16C141.411,80.76,141.93,80.241,141.93,79.6z"/>
				<path style="fill:#FFDB80;" d="M141.93,86.253c0-0.641-0.519-1.16-1.16-1.16c-0.641,0-1.16,0.519-1.16,1.16
					s0.519,1.16,1.16,1.16C141.411,87.412,141.93,86.893,141.93,86.253z"/>
				<path style="fill:#FFDB80;" d="M141.93,92.906c0-0.641-0.519-1.16-1.16-1.16c-0.641,0-1.16,0.519-1.16,1.16
					c0,0.64,0.519,1.16,1.16,1.16C141.411,94.065,141.93,93.546,141.93,92.906z"/>
				<path style="fill:#FFDB80;" d="M141.93,99.558c0-0.64-0.519-1.16-1.16-1.16c-0.641,0-1.16,0.519-1.16,1.16
					c0,0.64,0.519,1.16,1.16,1.16C141.411,100.718,141.93,100.199,141.93,99.558z"/>
				<path style="fill:#FFDB80;" d="M139.611,106.211c0,0.64,0.519,1.16,1.16,1.16c0.64,0,1.16-0.519,1.16-1.16
					c0-0.641-0.519-1.16-1.16-1.16C140.13,105.051,139.611,105.57,139.611,106.211z"/>
				<path style="fill:#FFDB80;" d="M135.644-6.885c0-0.64-0.519-1.16-1.16-1.16c-0.64,0-1.16,0.519-1.16,1.16
					c0,0.64,0.519,1.16,1.16,1.16C135.125-5.725,135.644-6.244,135.644-6.885z"/>
				<path style="fill:#FFDB80;" d="M135.644-0.232c0-0.64-0.519-1.16-1.16-1.16c-0.64,0-1.16,0.519-1.16,1.16
					c0,0.64,0.519,1.16,1.16,1.16C135.125,0.927,135.644,0.408,135.644-0.232z"/>
				<path style="fill:#FFDB80;" d="M135.644,6.421c0-0.64-0.519-1.16-1.16-1.16c-0.64,0-1.16,0.519-1.16,1.16
					c0,0.64,0.519,1.16,1.16,1.16C135.125,7.58,135.644,7.061,135.644,6.421z"/>
				<path style="fill:#FFDB80;" d="M135.644,13.073c0-0.64-0.519-1.16-1.16-1.16c-0.64,0-1.16,0.519-1.16,1.16
					c0,0.641,0.519,1.16,1.16,1.16C135.125,14.233,135.644,13.714,135.644,13.073z"/>
				<path style="fill:#FFDB80;" d="M135.644,19.726c0-0.64-0.519-1.16-1.16-1.16c-0.64,0-1.16,0.519-1.16,1.16
					c0,0.64,0.519,1.16,1.16,1.16C135.125,20.886,135.644,20.366,135.644,19.726z"/>
				<path style="fill:#FFDB80;" d="M135.644,26.379c0-0.64-0.519-1.16-1.16-1.16c-0.64,0-1.16,0.519-1.16,1.16s0.519,1.16,1.16,1.16
					C135.125,27.538,135.644,27.019,135.644,26.379z"/>
				<path style="fill:#FFDB80;" d="M135.644,33.031c0-0.64-0.519-1.16-1.16-1.16c-0.64,0-1.16,0.519-1.16,1.16s0.519,1.16,1.16,1.16
					C135.125,34.191,135.644,33.672,135.644,33.031z"/>
				<path style="fill:#FFDB80;" d="M135.644,39.684c0-0.64-0.519-1.16-1.16-1.16c-0.64,0-1.16,0.519-1.16,1.16
					c0,0.64,0.519,1.16,1.16,1.16C135.125,40.844,135.644,40.324,135.644,39.684z"/>
				<path style="fill:#FFDB80;" d="M135.644,46.337c0-0.64-0.519-1.16-1.16-1.16c-0.64,0-1.16,0.519-1.16,1.16
					c0,0.64,0.519,1.16,1.16,1.16C135.125,47.496,135.644,46.977,135.644,46.337z"/>
				<path style="fill:#FFDB80;" d="M135.644,52.989c0-0.64-0.519-1.16-1.16-1.16c-0.64,0-1.16,0.519-1.16,1.16
					c0,0.64,0.519,1.16,1.16,1.16C135.125,54.149,135.644,53.63,135.644,52.989z"/>
				<path style="fill:#FFDB80;" d="M135.644,59.642c0-0.641-0.519-1.16-1.16-1.16c-0.64,0-1.16,0.519-1.16,1.16
					c0,0.64,0.519,1.16,1.16,1.16C135.125,60.802,135.644,60.283,135.644,59.642z"/>
				<path style="fill:#FFDB80;" d="M135.644,66.295c0-0.641-0.519-1.16-1.16-1.16c-0.64,0-1.16,0.519-1.16,1.16
					c0,0.64,0.519,1.16,1.16,1.16C135.125,67.454,135.644,66.935,135.644,66.295z"/>
				<path style="fill:#FFDB80;" d="M135.644,72.947c0-0.64-0.519-1.16-1.16-1.16c-0.64,0-1.16,0.519-1.16,1.16
					c0,0.64,0.519,1.16,1.16,1.16C135.125,74.107,135.644,73.588,135.644,72.947z"/>
				<path style="fill:#FFDB80;" d="M135.644,79.6c0-0.64-0.519-1.16-1.16-1.16c-0.64,0-1.16,0.519-1.16,1.16
					c0,0.641,0.519,1.16,1.16,1.16C135.125,80.76,135.644,80.241,135.644,79.6z"/>
				<path style="fill:#FFDB80;" d="M135.644,86.253c0-0.641-0.519-1.16-1.16-1.16c-0.64,0-1.16,0.519-1.16,1.16
					s0.519,1.16,1.16,1.16C135.125,87.412,135.644,86.893,135.644,86.253z"/>
				<path style="fill:#FFDB80;" d="M135.644,92.906c0-0.641-0.519-1.16-1.16-1.16c-0.64,0-1.16,0.519-1.16,1.16
					c0,0.64,0.519,1.16,1.16,1.16C135.125,94.065,135.644,93.546,135.644,92.906z"/>
				<path style="fill:#FFDB80;" d="M135.644,99.558c0-0.64-0.519-1.16-1.16-1.16c-0.64,0-1.16,0.519-1.16,1.16
					c0,0.64,0.519,1.16,1.16,1.16C135.125,100.718,135.644,100.199,135.644,99.558z"/>
				<path style="fill:#FFDB80;" d="M135.644,106.211c0-0.641-0.519-1.16-1.16-1.16c-0.64,0-1.16,0.519-1.16,1.16
					c0,0.64,0.519,1.16,1.16,1.16C135.125,107.37,135.644,106.851,135.644,106.211z"/>
				<path style="fill:#FFDB80;" d="M129.357-6.885c0-0.64-0.519-1.16-1.16-1.16c-0.641,0-1.16,0.519-1.16,1.16
					c0,0.64,0.519,1.16,1.16,1.16C128.838-5.725,129.357-6.244,129.357-6.885z"/>
				<path style="fill:#FFDB80;" d="M129.357-0.232c0-0.64-0.519-1.16-1.16-1.16c-0.641,0-1.16,0.519-1.16,1.16
					c0,0.64,0.519,1.16,1.16,1.16C128.838,0.927,129.357,0.408,129.357-0.232z"/>
				<path style="fill:#FFDB80;" d="M129.357,6.421c0-0.64-0.519-1.16-1.16-1.16c-0.641,0-1.16,0.519-1.16,1.16
					c0,0.64,0.519,1.16,1.16,1.16C128.838,7.58,129.357,7.061,129.357,6.421z"/>
				<path style="fill:#FFDB80;" d="M129.357,13.073c0-0.64-0.519-1.16-1.16-1.16c-0.641,0-1.16,0.519-1.16,1.16
					c0,0.641,0.519,1.16,1.16,1.16C128.838,14.233,129.357,13.714,129.357,13.073z"/>
				<path style="fill:#FFDB80;" d="M129.357,19.726c0-0.64-0.519-1.16-1.16-1.16c-0.641,0-1.16,0.519-1.16,1.16
					c0,0.64,0.519,1.16,1.16,1.16C128.838,20.886,129.357,20.366,129.357,19.726z"/>
				<path style="fill:#FFDB80;" d="M129.357,26.379c0-0.64-0.519-1.16-1.16-1.16c-0.641,0-1.16,0.519-1.16,1.16
					s0.519,1.16,1.16,1.16C128.838,27.538,129.357,27.019,129.357,26.379z"/>
				<path style="fill:#FFDB80;" d="M129.357,33.031c0-0.64-0.519-1.16-1.16-1.16c-0.641,0-1.16,0.519-1.16,1.16
					s0.519,1.16,1.16,1.16C128.838,34.191,129.357,33.672,129.357,33.031z"/>
				<path style="fill:#FFDB80;" d="M129.357,39.684c0-0.64-0.519-1.16-1.16-1.16c-0.641,0-1.16,0.519-1.16,1.16
					c0,0.64,0.519,1.16,1.16,1.16C128.838,40.844,129.357,40.324,129.357,39.684z"/>
				<path style="fill:#FFDB80;" d="M129.357,46.337c0-0.64-0.519-1.16-1.16-1.16c-0.641,0-1.16,0.519-1.16,1.16
					c0,0.64,0.519,1.16,1.16,1.16C128.838,47.496,129.357,46.977,129.357,46.337z"/>
				<path style="fill:#FFDB80;" d="M129.357,52.989c0-0.64-0.519-1.16-1.16-1.16c-0.641,0-1.16,0.519-1.16,1.16
					c0,0.64,0.519,1.16,1.16,1.16C128.838,54.149,129.357,53.63,129.357,52.989z"/>
				<path style="fill:#FFDB80;" d="M129.357,59.642c0-0.641-0.519-1.16-1.16-1.16c-0.641,0-1.16,0.519-1.16,1.16
					c0,0.64,0.519,1.16,1.16,1.16C128.838,60.802,129.357,60.283,129.357,59.642z"/>
				<path style="fill:#FFDB80;" d="M129.357,66.295c0-0.641-0.519-1.16-1.16-1.16c-0.641,0-1.16,0.519-1.16,1.16
					c0,0.64,0.519,1.16,1.16,1.16C128.838,67.454,129.357,66.935,129.357,66.295z"/>
				<path style="fill:#FFDB80;" d="M129.357,72.947c0-0.64-0.519-1.16-1.16-1.16c-0.641,0-1.16,0.519-1.16,1.16
					c0,0.64,0.519,1.16,1.16,1.16C128.838,74.107,129.357,73.588,129.357,72.947z"/>
				<path style="fill:#FFDB80;" d="M129.357,79.6c0-0.64-0.519-1.16-1.16-1.16c-0.641,0-1.16,0.519-1.16,1.16
					c0,0.641,0.519,1.16,1.16,1.16C128.838,80.76,129.357,80.241,129.357,79.6z"/>
				<path style="fill:#FFDB80;" d="M129.357,86.253c0-0.641-0.519-1.16-1.16-1.16c-0.641,0-1.16,0.519-1.16,1.16
					s0.519,1.16,1.16,1.16C128.838,87.412,129.357,86.893,129.357,86.253z"/>
				<path style="fill:#FFDB80;" d="M129.357,92.906c0-0.641-0.519-1.16-1.16-1.16c-0.641,0-1.16,0.519-1.16,1.16
					c0,0.64,0.519,1.16,1.16,1.16C128.838,94.065,129.357,93.546,129.357,92.906z"/>
				<path style="fill:#FFDB80;" d="M129.357,99.558c0-0.64-0.519-1.16-1.16-1.16c-0.641,0-1.16,0.519-1.16,1.16
					c0,0.64,0.519,1.16,1.16,1.16C128.838,100.718,129.357,100.199,129.357,99.558z"/>
				<path style="fill:#FFDB80;" d="M129.357,106.211c0-0.641-0.519-1.16-1.16-1.16c-0.641,0-1.16,0.519-1.16,1.16
					c0,0.64,0.519,1.16,1.16,1.16C128.838,107.37,129.357,106.851,129.357,106.211z"/>
			</g>
		</g>
		<g style="clip-path:url(#SVGID_00000173853329505900143220000003687575412406479777_);">
			<g>
				
					<ellipse transform="matrix(0.3763 -0.9265 0.9265 0.3763 15.6198 122.53)" style="fill:#6BD6D1;" cx="98.822" cy="49.663" rx="11.34" ry="11.34"/>
				<circle style="fill:#F46E6E;" cx="98.822" cy="96.57" r="11.34"/>
				<path style="fill:#FFFFFF;" d="M98.822,219.656c-7.08,0-12.84-5.761-12.84-12.841c0-7.08,5.76-12.84,12.84-12.84
					c7.08,0,12.84,5.76,12.84,12.84C111.662,213.895,105.902,219.656,98.822,219.656z M98.822,196.975
					c-5.426,0-9.84,4.414-9.84,9.84c0,5.426,4.415,9.841,9.84,9.841c5.426,0,9.84-4.415,9.84-9.841
					C108.662,201.389,104.248,196.975,98.822,196.975z"/>
			</g>
			<g>
				
					<ellipse transform="matrix(0.9822 -0.188 0.188 0.9822 -68.2865 123.5187)" style="fill:#6BD6D1;" cx="616.913" cy="421.691" rx="11.34" ry="11.34"/>
				
					<ellipse transform="matrix(0.9876 -0.1568 0.1568 0.9876 -57.9165 109.3181)" style="fill:#F46E6E;" cx="663.82" cy="421.691" rx="11.34" ry="11.34"/>
				<path style="fill:#FFFFFF;" d="M676.66,258.053c0,7.08-5.761,12.84-12.841,12.84c-7.08,0-12.84-5.76-12.84-12.84
					c0-7.08,5.76-12.84,12.84-12.84C670.9,245.213,676.66,250.973,676.66,258.053z M653.98,258.053c0,5.426,4.414,9.84,9.84,9.84
					c5.426,0,9.841-4.414,9.841-9.84c0-5.426-4.415-9.84-9.841-9.84C658.394,248.213,653.98,252.627,653.98,258.053z"/>
			</g>
		</g>
	</g>
</g>
</svg>
